<?xml version="1.0" encoding="UTF-8"?><svg id="Layer_1" xmlns="http://www.w3.org/2000/svg" viewBox="0 0 35 35"><defs><style>.cls-1{fill:#1f66ff;}.cls-2{fill:#f2f2f2;}</style></defs><circle class="cls-2" cx="17.5" cy="17.5" r="17.5"/><path class="cls-1" d="M25.19,13.47v5.24c0,1.62-1.31,2.93-2.93,2.93h-7.72c0,.98.8,1.78,1.79,1.78h7.08c.33,0,.59.27.59.59s-.27.59-.59.59h-1.11l.88,1.1c.34.43.85.67,1.4.67.99,0,1.79-.8,1.79-1.79v-9.44c0-.78-.5-1.43-1.18-1.68h0Z"/><path class="cls-1" d="M10.99,21.05c0-.33.27-.59.59-.59h10.68c.96,0,1.75-.79,1.75-1.75v-8.34c0-.96-.79-1.75-1.75-1.75h-11.89c-.96,0-1.75.79-1.75,1.75v11.89c0,.96.79,1.75,1.75,1.75.59,0,1.13-.29,1.46-.78l1.06-1.59h-1.3c-.33,0-.59-.27-.59-.59h0ZM21.05,17.8h-4.73c-.33,0-.59-.27-.59-.59s.27-.59.59-.59h4.73c.33,0,.59.27.59.59s-.27.59-.59.59ZM15.13,11.29h5.92c.33,0,.59.27.59.59s-.27.59-.59.59h-5.92c-.33,0-.59-.27-.59-.59s.27-.59.59-.59ZM15.13,13.95h5.92c.33,0,.59.27.59.59s-.27.59-.59.59h-5.92c-.33,0-.59-.27-.59-.59s.27-.59.59-.59ZM12.17,11.29h.59c.33,0,.59.27.59.59s-.27.59-.59.59h-.59c-.33,0-.59-.27-.59-.59s.27-.59.59-.59ZM11.58,14.25c-.33,0-.59-.27-.59-.59s.27-.59.59-.59h1.18c.33,0,.59.27.59.59v2.96h.59c.33,0,.59.27.59.59s-.27.59-.59.59h-2.37c-.33,0-.59-.27-.59-.59s.27-.59.59-.59h.59v-2.37h-.59Z"/></svg>