<?xml version="1.0" encoding="UTF-8"?><svg id="Layer_1" xmlns="http://www.w3.org/2000/svg" viewBox="0 0 35 35"><defs><style>.cls-1{fill:#f2f2f2;}.cls-2{fill:#f47c80;fill-rule:evenodd;}</style></defs><circle class="cls-1" cx="17.5" cy="17.5" r="17.5"/><path class="cls-2" d="M10.08,26.5h6.33v-.87h-6.44v-15.11h1.66v-.87h-1.55c-.54,0-.98.44-.98.98v14.88c0,.54.44.98.98.98h0ZM15.57,12.92c1.67,0,3.02,1.35,3.02,3.02s-1.35,3.02-3.02,3.02-3.02-1.35-3.02-3.02,1.35-3.02,3.02-3.02h0ZM13.81,16.07c-.16-.22-.11-.53.11-.69.22-.16.53-.11.69.11l.58.79,1.34-1.82c.16-.22.47-.27.69-.11s.27.47.11.69l-1.73,2.35c-.19.27-.6.28-.8,0l-.98-1.33h0ZM21.37,16.99c-1.32,0-2.39,1.07-2.39,2.39s1.07,2.39,2.39,2.39,2.39-1.07,2.39-2.39-1.07-2.39-2.39-2.39h0ZM25.89,24.38v2.11h-9.04v-2.11c.05-1.45,1.28-2.36,2.82-2.74,1.01.76,2.39.76,3.4,0,1.54.38,2.77,1.29,2.82,2.74ZM12.07,11.67v-2h2.33c0-.64.52-1.16,1.16-1.16s1.16.52,1.16,1.16h2.33v2h-6.98ZM15.57,9.25c.23,0,.41.18.41.41s-.18.41-.41.41-.41-.18-.41-.41.18-.41.41-.41ZM10.41,10.97h1.23v1.14h7.86v-1.14h1.23v5.66c-1.25.29-2.18,1.42-2.18,2.75,0,.74.28,1.41.74,1.91-1.47.43-2.81,1.41-2.87,3.08h0v.83h-6v-14.23ZM15.57,12.48c1.91,0,3.46,1.55,3.46,3.46s-1.55,3.46-3.46,3.46-3.46-1.55-3.46-3.46,1.55-3.46,3.46-3.46h0ZM13.02,20.2c-.12,0-.22-.1-.22-.22s.1-.22.22-.22h5.1c.12,0,.22.1.22.22s-.1.22-.22.22h-5.1ZM13.02,21.23c-.12,0-.22-.1-.22-.22s.1-.22.22-.22h5.1c.12,0,.22.1.22.22s-.1.22-.22.22h-5.1ZM12.32,23.56c-.02.12-.14.2-.26.17-.12-.02-.2-.14-.17-.26.05-.28.77-1.16,1.29-.97.2.08.3.28.34.5.06-.06.12-.13.2-.18.22-.14.46-.15.69.22.1.15.11-.04.4-.06.23-.02.42.15.51.36,0,0,.56-.08.71-.09.12,0,.22.09.23.21s-.09.22-.21.23c-.02,0-.08,0-.15.02-.33.04-.86.11-.99-.19-.02-.04-.06-.1-.08-.1-.03,0-.07.03-.11.05-.22.13-.41.23-.68-.19-.05-.08-.08-.1-.09-.09-.14.09-.26.36-.47.39-.19.03-.33-.09-.39-.48-.01-.08-.04-.19-.07-.19-.04-.01-.18.06-.26.13-.11.08-.21.19-.3.29-.08.1-.14.19-.15.22h0ZM13.44,23.15s0,.02-.02.02c-.03,0-.01,0,.02-.02ZM22.03,16.62v-5.98c0-.54-.44-.98-.98-.98h-1.55v.87h1.66v6.03c.29-.02.59,0,.87.07h0Z"/></svg>