<?xml version="1.0" encoding="UTF-8"?><svg id="Layer_1" xmlns="http://www.w3.org/2000/svg" viewBox="0 0 35 35"><defs><style>.cls-1{fill:#f2f2f2;}.cls-2{fill:#08eb85;}</style></defs><circle class="cls-1" cx="17.5" cy="17.5" r="17.5"/><path class="cls-2" d="M25.8,13.78l-1.85-1.11-.42-1.73c-.19-.77-.89-1.28-1.67-1.21l-2.12.16-1.21-1.07c-.6-.51-1.47-.51-2.07,0l-1.21,1.07-2.12-.16c-.77-.05-1.49.45-1.65,1.15-.03.11-.65,2.03-.61,1.9l-1.67.99c-.67.41-.94,1.24-.64,1.97l.72,1.75-.72,1.75c-.3.73-.03,1.55.64,1.97l1.85,1.1.42,1.73c.18.76.89,1.27,1.67,1.21l2.09-.16,1.24,1.09c.3.26.67.38,1.03.38s.73-.13,1.03-.38l1.24-1.09,2.09.16c.79.06,1.49-.45,1.67-1.21l.42-1.73,1.85-1.11c.67-.41.94-1.24.64-1.97l-.72-1.75.72-1.75c.3-.73.03-1.55-.64-1.96h0ZM17.5,23.34c-3.22,0-5.84-2.62-5.84-5.84s2.62-5.84,5.84-5.84,5.84,2.62,5.84,5.84-2.62,5.84-5.84,5.84Z"/><path class="cls-2" d="M17.5,12.72c-2.64,0-4.78,2.14-4.78,4.78s2.14,4.78,4.78,4.78,4.78-2.14,4.78-4.78-2.14-4.78-4.78-4.78ZM20.53,16.28l-3.19,3.19c-.1.1-.24.16-.38.16s-.27-.05-.38-.16l-2.12-2.12c-.21-.21-.21-.54,0-.75s.54-.21.75,0l1.75,1.75,2.81-2.81c.21-.21.54-.21.75,0s.21.54,0,.75Z"/></svg>