<?xml version="1.0" encoding="UTF-8"?><svg id="Layer_1" xmlns="http://www.w3.org/2000/svg" viewBox="0 0 35 35"><defs><style>.cls-1{fill:#f47c80;}.cls-2{fill:#f2f2f2;}</style></defs><circle class="cls-2" cx="17.5" cy="17.5" r="17.5"/><path class="cls-1" d="M21.16,19.58c-.11,0-.22-.06-.28-.17-.06-.17,0-.28.17-.34l2.64-1.01-6.19-2.25-6.19,2.25,2.64.96c.17.06.22.22.17.34-.06.17-.22.22-.34.17l-3.38-1.24c-.17,0-.23-.11-.23-.22s.06-.22.17-.28l7.03-2.53h.17l7.03,2.53c.11.06.17.17.17.28s-.06.22-.17.28l-3.38,1.24h-.06Z"/><path class="cls-1" d="M23.41,22c-.17,0-.28-.11-.28-.28v-3.82c0-.17.11-.28.28-.28s.28.11.28.28v3.82c0,.17-.11.28-.28.28Z"/><path class="cls-1" d="M25.09,24.81h-15.19c-.79,0-1.41-.62-1.41-1.41v-10.12c0-.17.11-.28.28-.28h17.44c.17,0,.28.11.28.28v10.12c0,.79-.62,1.41-1.41,1.41ZM9.06,13.56v9.84c0,.45.39.84.84.84h15.19c.45,0,.84-.39.84-.84v-9.84H9.06Z"/><path class="cls-1" d="M13.67,18.46c-.06.06-.11.17-.11.22v3.6c0,.11.06.17.11.22.11.06.17.06.28,0,.96-.56,2.42-.56,3.38,0,.11.06.17.06.28,0,.96-.56,2.42-.56,3.38,0,.06,0,.11.06.11.06,0,0,.11,0,.11-.06.11-.06.11-.17.11-.22v-3.6c0-.11-.06-.17-.11-.22-2.14-1.29-5.29-1.29-7.54,0Z"/><circle class="cls-1" cx="23.41" cy="22.28" r=".84"/><path class="cls-1" d="M25.09,10.19h-15.19c-.79,0-1.41.62-1.41,1.41v1.69c0,.17.11.28.28.28h17.44c.17,0,.28-.11.28-.28v-1.69c0-.79-.62-1.41-1.41-1.41ZM10.75,12.44c-.34,0-.56-.23-.56-.56s.23-.56.56-.56.56.23.56.56-.23.56-.56.56ZM12.44,12.44c-.34,0-.56-.23-.56-.56s.23-.56.56-.56.56.23.56.56-.23.56-.56.56ZM14.12,12.44c-.34,0-.56-.23-.56-.56s.22-.56.56-.56.56.23.56.56-.22.56-.56.56Z"/></svg>