<?xml version="1.0" encoding="UTF-8"?><svg id="Layer_1" xmlns="http://www.w3.org/2000/svg" viewBox="0 0 35 35"><defs><style>.cls-1{fill:#f2f2f2;}.cls-2{fill:#08eb85;}</style></defs><circle class="cls-1" cx="17.5" cy="17.5" r="17.5"/><path class="cls-2" d="M25.61,17.6s-.09,0-.13-.02h-2.58c-.67,0-1.22.55-1.22,1.22v1.37c0,.67.55,1.22,1.22,1.22h3.78v-3.8h-.94s-.08.02-.13.02ZM23.72,20.16c0,.22-.18.41-.41.41s-.41-.18-.41-.41v-1.36c0-.22.18-.41.41-.41s.41.18.41.41v1.36Z"/><path class="cls-2" d="M15.24,15.59c-2.18,0-3.94,1.77-3.94,3.94s1.77,3.94,3.94,3.94,3.94-1.77,3.94-3.94c0-2.18-1.77-3.94-3.94-3.94ZM16.29,18.04h.56c.22,0,.41.18.41.41s-.18.41-.41.41h-.56c-.18.77-.85,1.33-1.64,1.38l1.56,1.48c.12.11.16.29.1.45s-.21.26-.38.25c-.1,0-.2-.04-.28-.11l-2.3-2.17c-.12-.11-.16-.29-.1-.45.06-.15.21-.26.38-.26h.92c.38,0,.73-.22.89-.57h-1.8c-.22,0-.41-.18-.41-.41s.18-.41.41-.41h1.8c-.16-.35-.51-.57-.89-.57h-.92c-.22,0-.41-.18-.41-.41s.18-.41.41-.41h3.22c.22,0,.41.18.41.41s-.18.41-.41.41h-.8c.11.18.19.37.24.57Z"/><path class="cls-2" d="M10.31,13.23h12.84v-2.66c0-.16-.06-.32-.18-.43-.11-.11-.27-.18-.43-.18h-12.23c-.9,0-1.63.73-1.63,1.63v.02c0,.9.73,1.63,1.63,1.63ZM10.71,11.19h10.4c.22,0,.41.18.41.41s-.18.41-.41.41h-10.4c-.22,0-.41-.18-.41-.41s.18-.41.41-.41Z"/><path class="cls-2" d="M20.87,20.16v-1.36c0-1.12.91-2.03,2.03-2.03h2.3v-2.72h-14.9c-.6,0-1.18-.22-1.63-.62v9.99c0,.9.73,1.63,1.63,1.63h14.92v-2.85h-2.32c-1.12,0-2.03-.91-2.04-2.03ZM15.24,24.29c-2.63,0-4.76-2.13-4.76-4.76s2.13-4.76,4.76-4.76,4.76,2.13,4.76,4.76c0,2.63-2.13,4.75-4.76,4.76Z"/></svg>