<?xml version="1.0" encoding="UTF-8"?><svg id="Layer_1" xmlns="http://www.w3.org/2000/svg" viewBox="0 0 35 35"><defs><style>.cls-1{fill:#ffd101;}.cls-2{fill:#f2f2f2;}</style></defs><circle class="cls-2" cx="17.5" cy="17.5" r="17.5"/><g id="to_do_list-2"><path class="cls-1" d="M13.75,10.54c0,1.13.94,2.04,2.07,2.03,1.12,0,2.02-.92,2.03-2.03,0-1.13-.94-2.04-2.07-2.03-1.12,0-2.02.92-2.03,2.03ZM15.81,11.19c-.36-.01-.64-.31-.63-.67.01-.34.29-.62.63-.63.36.01.64.31.63.67-.01.34-.29.62-.63.63ZM20.44,10.54h-1.28c-.13,4.43-6.59,4.43-6.71,0h-1.28c-.99,0-1.8.8-1.8,1.79,0,0,0,0,0,0v12.37c0,.99.81,1.79,1.8,1.79h9.27c.99,0,1.79-.8,1.8-1.79v-12.37c0-.99-.8-1.8-1.79-1.8,0,0,0,0,0,0ZM14.55,23.75l-1.02,1.02c-.25.25-.67.25-.92,0,0,0,0,0,0,0l-.54-.54c-.25-.26-.24-.68.02-.93.26-.25.68-.24.93.02.02.02.04.04.06.07l.56-.56c.26-.25.67-.24.92.02.24.25.24.65,0,.9ZM14.55,20l-1.02,1.02c-.25.25-.67.25-.92,0l-.54-.54c-.25-.26-.24-.68.02-.93.26-.25.68-.24.93.02.02.02.04.04.06.07l.56-.56c.26-.25.67-.24.92.02.24.25.24.65,0,.9ZM14.55,16.26l-1.02,1.02c-.25.25-.67.25-.92,0,0,0,0,0,0,0l-.54-.54c-.25-.26-.24-.68.02-.93s.68-.24.93.02c.02.02.04.04.06.07l.56-.56c.26-.25.67-.24.92.02.24.25.24.65,0,.9ZM19.09,24.45h-3.14c-.36,0-.65-.3-.64-.66,0-.35.29-.64.64-.64h3.14c.36,0,.65.3.64.66,0,.35-.29.64-.64.64ZM19.09,20.71h-3.14c-.36,0-.65-.3-.64-.66,0-.35.29-.64.64-.64h3.14c.36,0,.65.3.64.66,0,.35-.29.64-.64.64ZM19.09,16.96h-3.14c-.36,0-.65-.3-.64-.66,0-.35.29-.64.64-.64h3.14c.36,0,.65.3.64.66,0,.35-.29.64-.64.64ZM26.69,13.84v.48h-2.75v-.48c0-.76.63-1.37,1.39-1.36.75,0,1.35.61,1.36,1.36ZM23.94,15.62h2.75v8.15l-1.38,1.2-1.37-1.2v-8.15Z"/></g></svg>