<?xml version="1.0" encoding="UTF-8"?><svg id="Layer_1" xmlns="http://www.w3.org/2000/svg" viewBox="0 0 35 35"><defs><style>.cls-1{fill:#ffd101;}.cls-2{fill:#f2f2f2;}</style></defs><circle class="cls-2" cx="17.5" cy="17.5" r="17.5"/><path class="cls-1" d="M11.24,23.18c-.54,0-1.05-.12-1.5-.32.16.62.64,1.11,1.25,1.29v1.65c0,.2.11.38.29.47.07.03.15.05.22.05.12,0,.23-.04.33-.11l2.47-1.98h5.03c.2,0,.39-.03.56-.09l-.95-.95h-7.7Z"/><path class="cls-1" d="M23.76,8.58h-12.52c-1.44,0-2.61,1.17-2.61,2.61v8.35c0,1.44,1.17,2.61,2.61,2.61h8.13l4.02,4.02c.1.1.23.15.37.15.07,0,.13-.01.2-.04.19-.08.32-.27.32-.48v-3.71c1.19-.24,2.09-1.3,2.09-2.55v-8.35c0-1.44-1.17-2.61-2.61-2.61h0ZM17.5,19.54c-.29,0-.51-.24-.52-.52-.01-.28.25-.52.52-.52.29,0,.51.24.52.52.01.28-.25.52-.52.52ZM18.97,14.75l-.63.63c-.2.2-.31.46-.31.74v.81c0,.29-.23.52-.52.52s-.52-.23-.52-.52v-.81c0-.56.22-1.08.61-1.47l.63-.63c.2-.2.31-.46.31-.74,0-.58-.47-1.05-1.05-1.05s-1.05.47-1.05,1.05v.52c0,.29-.23.52-.52.52s-.52-.23-.52-.52v-.52c0-1.15.94-2.08,2.08-2.08s2.08.94,2.08,2.08c0,.56-.22,1.08-.61,1.47Z"/></svg>