<?xml version="1.0" encoding="UTF-8"?><svg id="Layer_1" xmlns="http://www.w3.org/2000/svg" viewBox="0 0 35 35"><defs><style>.cls-1{fill:#1f66ff;}.cls-2{fill:#f2f2f2;}</style></defs><circle class="cls-2" cx="17.5" cy="17.5" r="17.5"/><path class="cls-1" d="M18.86,22.92l-.83.69c.34.18.76.05.94-.29.09-.17.11-.38.04-.56-.05.06-.1.11-.15.16Z"/><path class="cls-1" d="M15.21,19.22c-.25-.3-.69-.33-.99-.09l-1.5,1.26c-.3.25-.34.69-.09.99.25.3.69.33.99.09l1.5-1.26c.3-.25.34-.69.09-.99Z"/><path class="cls-1" d="M18.59,21.51c-.25-.3-.69-.33-.99-.09l-1.07.9c-.3.25-.33.69-.09.99.25.3.69.33.99.09l1.07-.9c.3-.25.34-.69.09-.99,0,0,0,0,0,0h0Z"/><path class="cls-1" d="M14.08,18.53c.3-.25.33-.69.09-.99-.25-.3-.69-.33-.99-.09l-1.29,1.08c-.3.25-.33.69-.09.99.25.3.69.33.99.09l1.29-1.08Z"/><path class="cls-1" d="M16.69,20.55c-.25-.3-.69-.33-.99-.09l-1.07.9c-.29.26-.32.7-.06.99.25.28.67.32.96.08l1.07-.9c.3-.25.33-.69.09-.99h0Z"/><rect class="cls-1" x="6.59" y="14" width="6.72" height="1.4" rx=".28" ry=".28" transform="translate(-6.26 21.94) rotate(-79.98)"/><path class="cls-1" d="M23.39,18.44l-2.77-1.83c-.56.12-1.14.08-1.67-.12-.68-.24-1.24-.72-1.58-1.36l-.9.18-.35.53c-.43.64-1.29.82-1.94.39-.52-.34-.66-1.04-.32-1.55l.99-1.49c.15-.23.37-.41.62-.52l1.49-.64c-.43-.18-.9-.24-1.36-.17l-3.16.48-.78-.14-.98,5.57.23.04c.1.21.21.42.35.61.07-.13.17-.24.28-.34l1.29-1.08c.53-.45,1.32-.38,1.77.15.29.35.38.82.22,1.25.67.07,1.17.66,1.12,1.34.68-.13,1.33.32,1.46,1,0,.04.01.08.02.12.59-.36,1.36-.18,1.72.41.15.25.21.54.18.82l.22.15c.32.21.76.12.97-.21.21-.32.12-.75-.2-.96l-1.75-1.16c-.13-.08-.18-.25-.1-.38s.25-.18.38-.1c0,0,.02.01.02.02l2.22,1.47c.32.22.76.13.97-.19s.13-.76-.19-.97c0,0,0,0-.01,0l-2.22-1.47c-.13-.08-.18-.25-.1-.38.08-.13.25-.18.38-.1,0,0,.01,0,.02.01l2.68,1.78c.32.21.76.12.97-.2.21-.32.12-.76-.2-.97h0Z"/><rect class="cls-1" x="24.71" y="11.33" width="1.4" height="6.72" rx=".28" ry=".28" transform="translate(-2.17 4.64) rotate(-10.02)"/><path class="cls-1" d="M22.91,12.36l-3.16-.48c-.46-.07-.94-.01-1.37.17l-2.69,1.15c-.15.06-.28.17-.37.31l-.99,1.49c-.17.26-.1.61.16.78,0,0,0,0,0,0,.39.26.91.15,1.16-.24l.48-.72,1.34-.27c.13-.03.25.04.31.15.26.59.75,1.06,1.36,1.27.51.18,1.07.2,1.58.04.23-.07.44-.17.64-.3h0s.24-.15.24-.15c.13-.08.3-.05.39.08.08.13.05.3-.08.39h0l-.23.15c-.12.08-.24.15-.37.21l2.4,1.59c.17.12.31.27.41.46.13-.19.24-.38.34-.59l.23-.04-.98-5.57-.78.14Z"/></svg>