<?xml version="1.0" encoding="utf-8"?>
<svg width="21" height="21" viewBox="0 0 21 21" fill="none" xmlns="http://www.w3.org/2000/svg">
  <g>
    <path d="M14.25 21C14.25 21 6.75 21 6.75 21C3.02208 21 0 17.9779 0 14.25C0 14.25 0 6.75 0 6.75C7.15256e-07 3.02208 3.02208 0 6.75 0C6.75 0 14.25 0 14.25 0C17.9779 0 21 3.02208 21 6.75C21 6.75 21 14.25 21 14.25C21 17.9779 17.9779 21 14.25 21C14.25 21 14.25 21 14.25 21ZM6.76034 1.51094C3.86084 1.51094 1.51034 3.86145 1.51034 6.76094C1.51034 6.76094 1.51034 14.2609 1.51034 14.2609C1.51034 17.1604 3.86084 19.5109 6.76034 19.5109C6.76034 19.5109 14.2603 19.5109 14.2603 19.5109C17.1598 19.5109 19.5103 17.1604 19.5103 14.2609C19.5103 14.2609 19.5103 6.76094 19.5103 6.76094C19.5103 3.86145 17.1598 1.51094 14.2603 1.51094C14.2603 1.51094 6.76034 1.51094 6.76034 1.51094Z" fill="#000000" />
    <path d="M5.25049 10.5C4.4728 10.5064 3.70369 10.3372 3.0005 10.005C2.63384 9.82436 2.47934 9.38339 2.65308 9.01341C2.82683 8.64344 3.26483 8.48071 3.638 8.6475C5.31985 9.42474 7.31725 8.85722 8.33915 7.31175C9.36105 5.76629 9.10113 3.70617 7.72738 2.46296C6.35364 1.21975 4.27788 1.16613 2.84178 2.33676C1.40568 3.50739 1.03975 5.55134 1.9805 7.1475C2.12829 7.38 2.13673 7.6748 2.00247 7.91537C1.86822 8.15593 1.61288 8.30352 1.33741 8.2998C1.06194 8.29606 0.810695 8.14161 0.682998 7.8975C0.223303 7.09172 -0.0123501 6.1776 0.000498295 5.25C0.000498295 2.35051 2.351 0 5.2505 0C8.14999 0 10.5005 2.35051 10.5005 5.25C10.5005 8.1495 8.14999 10.5 5.2505 10.5C5.2505 10.5 5.25049 10.5 5.25049 10.5Z" fill="#000000" transform="translate(5.211 5.288)" />
    <path d="M0 1.125C0 0.50368 0.503679 0 1.125 0C1.74632 0 2.25 0.50368 2.25 1.125C2.25 1.74632 1.74632 2.25 1.125 2.25C0.503679 2.25 0 1.74632 0 1.125Z" fill="#000000" fill-rule="evenodd" transform="translate(15.002 3.75)" />
  </g>
</svg>