<?xml version="1.0" encoding="UTF-8"?><svg id="Layer_1" xmlns="http://www.w3.org/2000/svg" viewBox="0 0 35 35"><defs><style>.cls-1{fill:#f2f2f2;}.cls-2{fill:#1f66ff;fill-rule:evenodd;}</style></defs><circle class="cls-1" cx="17.5" cy="17.5" r="17.5"/><path class="cls-2" d="M16.08,14.6h2.84c.38,0,.69.31.69.69v10.89s0,.03-.02.03c-.01,0-.03,0-.04,0l-2.02-2.02s-.04-.01-.05,0l-2.02,2.02s-.03.01-.04,0c-.01,0-.02-.02-.02-.03v-10.89c0-.38.31-.69.69-.69h0ZM11.59,11.69l.5,1.54s.02.03.03.03h1.61s.03,0,.03.02,0,.03-.01.04l-1.31.95s-.02.03-.01.04l.5,1.53s0,.03-.01.04-.03,0-.04,0l-1.3-.95s-.03,0-.04,0l-1.3.95s-.03,0-.04,0-.02-.03-.01-.04l.5-1.53s0-.03-.01-.04l-1.31-.95s-.02-.03-.01-.04c0-.02.02-.03.03-.03h1.61s.03,0,.03-.02l.5-1.54s.02-.03.03-.03.03,0,.03.03h0ZM10.14,17.48h2.84c.38,0,.69.31.69.69v8.01s0,.03-.02.03c-.01,0-.03,0-.04,0l-2.02-2.02s-.04-.01-.05,0l-2.02,2.02s-.03.01-.04,0c-.01,0-.02-.02-.02-.03v-8.01c0-.38.31-.69.69-.69h0ZM23.48,11.69l.5,1.54s.02.03.03.03h1.61s.03,0,.03.02,0,.03-.01.04l-1.31.95s-.02.03-.01.04l.5,1.53s0,.03-.01.04-.03,0-.04,0l-1.3-.95s-.03,0-.04,0l-1.3.95s-.03,0-.04,0-.02-.03-.01-.04l.5-1.53s0-.03-.01-.04l-1.31-.95s-.02-.03-.01-.04c0-.02.02-.03.03-.03h1.61s.03,0,.03-.02l.5-1.54s.02-.03.03-.03c.02,0,.03.01.03.03h0ZM22.02,17.48h2.84c.38,0,.69.31.69.69v8.01s0,.03-.02.03c-.01,0-.03,0-.04,0l-2.02-2.02s-.04-.01-.05,0l-2.02,2.02s-.03.01-.04,0c-.01,0-.02-.02-.02-.03v-8.01c0-.38.31-.69.69-.69h0ZM17.53,8.81l.5,1.54s.02.03.03.03h1.61s.03,0,.03.02c0,.02,0,.03-.01.04l-1.31.95s-.02.03-.01.04l.5,1.53s0,.03-.01.04-.03,0-.04,0l-1.3-.95s-.03,0-.04,0l-1.3.95s-.03,0-.04,0-.02-.03-.01-.04l.5-1.53s0-.03-.01-.04l-1.31-.95s-.02-.03-.01-.04c0-.02.02-.03.03-.03h1.61s.03,0,.03-.02l.5-1.54s.02-.03.03-.03c.02,0,.03,0,.03.03h0Z"/></svg>