<?xml version="1.0" encoding="UTF-8"?><svg id="Layer_1" xmlns="http://www.w3.org/2000/svg" viewBox="0 0 35 35"><defs><style>.cls-1{fill:#f2f2f2;}.cls-2{fill:#f97530;}</style></defs><circle class="cls-1" cx="17.5" cy="17.5" r="17.5"/><g id="_26"><path class="cls-2" d="M22.86,8.68h-10.71c-1.5,0-2.73,1.23-2.73,2.73v4.56c0,1.51,1.22,2.73,2.73,2.73h2.39c.31,0,.59.16.75.43l.76,1.26c.26.43.71.68,1.21.68s.95-.26,1.21-.68l.76-1.26c.16-.26.44-.43.75-.43h2.89c1.51,0,2.73-1.22,2.73-2.73v-4.56c0-1.51-1.22-2.73-2.73-2.73ZM19.62,14.34h-4.23c-.42,0-.76-.34-.76-.76s.34-.76.76-.76h4.23c.42,0,.76.34.76.76s-.34.76-.76.76Z"/><path class="cls-2" d="M24.45,22.34l-.99-.14c-.17-.02-.32-.13-.4-.29l-.44-.89c-.26-.53-1.11-.53-1.36,0l-.45.9c-.08.15-.22.26-.4.29l-.99.14c-.28.05-.52.24-.61.52-.09.27-.02.58.19.78l.72.7c.12.12.18.29.15.46l-.17.98c-.05.29.07.58.3.75.23.17.54.19.8.05l.88-.46c.15-.08.34-.08.49,0l.89.47c.23.13.55.13.8-.05.24-.17.35-.46.3-.75l-.17-.98c-.03-.17.03-.35.15-.47l.71-.7c.21-.21.29-.51.2-.78-.09-.27-.33-.47-.62-.52Z"/><path class="cls-2" d="M15.57,22.34l-.99-.14c-.17-.02-.32-.13-.4-.29l-.44-.89c-.13-.26-.4-.43-.68-.43s-.56.17-.68.43l-.44.89c-.08.16-.23.26-.4.29l-.99.14c-.29.05-.52.24-.62.52-.08.27-.02.58.2.78l.71.7c.12.12.18.3.15.47l-.17.98c-.05.29.07.57.3.75.24.17.55.19.81.05l.88-.46c.15-.08.34-.08.49,0l.88.46c.26.14.57.12.81-.05.24-.17.35-.46.3-.75l-.17-.98c-.03-.17.03-.35.15-.47l.71-.7c.21-.21.28-.51.2-.78-.09-.27-.33-.47-.62-.52Z"/></g></svg>