<?xml version="1.0" encoding="UTF-8"?><svg id="Layer_1" xmlns="http://www.w3.org/2000/svg" viewBox="0 0 35 35"><defs><style>.cls-1{fill:#1f66ff;}.cls-2{fill:#f2f2f2;}</style></defs><circle class="cls-2" cx="17.5" cy="17.5" r="17.5"/><path class="cls-1" d="M13.12,16.31c-.16,0-.31-.06-.43-.18-.22-.24-.21-.6.03-.82,1.11-1.05,2.31-2.05,3.54-2.99.71-.55,1.75-.55,2.47,0,1.24.94,2.43,1.95,3.54,2.99.24.22.25.59.03.82s-.59.25-.82.03c-1.08-1.02-2.25-2-3.45-2.92-.3-.23-.75-.23-1.05,0-1.2.92-2.37,1.9-3.45,2.92-.11.11-.26.16-.4.16h0Z"/><path class="cls-1" d="M17.5,11.26c.2,0,.39.02.58.06v-2.42c0-.27-.22-.5-.5-.5s-.5.22-.5.5v2.39c.14-.02.27-.03.41-.03h0Z"/><path class="cls-1" d="M18.84,8.84h1.3c.09,0,.16.07.16.16v.2h1.09c.11,0,.18.13.12.22l-.5.74s-.03.11,0,.16l.5.74c.06.09,0,.22-.12.22h-1.67c-.08,0-.14-.06-.14-.14v-.21h-.74c-.1,0-.18-.08-.18-.18v-1.72c0-.1.08-.18.18-.18h0Z"/><path class="cls-1" d="M12.93,26.04c-.09-1.3-.15-4.41-.14-6.98-1.33.02-2.35.06-2.78.1-.7.08-1.38.49-1.46,1.19-.12,1.09-.16,4.07-.13,5.51,0,.3.25.56.56.58,1.01.06,2.46.1,4.12.12-.09-.16-.15-.33-.16-.53h0ZM11.25,24.85c-.01.1-.1.19-.2.2-.23.03-.47.03-.7,0-.1-.01-.19-.1-.2-.2-.03-.23-.03-1.14,0-1.38.01-.1.1-.19.2-.2.23-.03.47-.03.7,0,.1.01.19.1.2.2.03.23.03,1.14,0,1.38ZM11.25,21.96c-.01.1-.1.19-.2.2-.23.03-.47.03-.7,0-.1-.01-.19-.1-.2-.2-.03-.23-.03-1.14,0-1.38.01-.1.1-.19.2-.2.23-.03.47-.03.7,0,.1.01.19.1.2.2.03.23.03,1.14,0,1.38Z"/><path class="cls-1" d="M26.46,20.35c-.08-.7-.76-1.11-1.46-1.19-.43-.05-1.45-.08-2.77-.1,0,2.57-.05,5.68-.14,6.99-.01.19-.07.37-.16.52,1.66-.03,3.11-.07,4.12-.13.3-.02.55-.28.56-.58.03-1.44-.01-4.42-.13-5.51h0ZM24.85,24.85c-.01.1-.1.19-.2.2-.23.03-.47.03-.7,0-.1-.01-.19-.1-.2-.2-.03-.23-.03-1.14,0-1.38.01-.1.1-.19.2-.2.23-.03.47-.03.7,0,.1.01.19.1.2.2.03.23.03,1.14,0,1.38ZM24.85,21.96c-.01.1-.1.19-.2.2-.23.03-.47.03-.7,0-.1-.01-.19-.1-.2-.2-.03-.23-.03-1.14,0-1.38.01-.1.1-.19.2-.2.23-.03.47-.03.7,0,.1.01.19.1.2.2.03.23.03,1.14,0,1.38Z"/><path class="cls-1" d="M18.48,23.08s-.06-.09-.1-.1c-.59-.06-1.18-.06-1.77,0-.03,0-.09.06-.1.1-.03.34-.05,2.32-.04,3.51.68.01,1.37.01,2.05,0,0-1.2-.01-3.18-.04-3.51h0Z"/><path class="cls-1" d="M21.56,16.91c-.19-.05-.37-.15-.52-.29-1.07-1-2.21-1.97-3.4-2.87-.03-.03-.09-.04-.14-.04s-.11.02-.14.04c-1.19.9-2.33,1.87-3.4,2.87-.15.14-.33.24-.52.29-.06,2.61,0,7.42.12,9.08.02.27.25.5.52.51.47.02.93.04,1.4.06,0-1.02,0-3.17.05-3.6h0c.06-.49.48-.92.97-.97h0c.66-.07,1.33-.07,1.99,0h0c.49.06.91.48.97.97h0c.05.43.06,2.58.05,3.6.47-.01.93-.03,1.4-.06.27-.01.5-.24.52-.51.12-1.66.18-6.47.12-9.08h0ZM19.19,19.94h-3.37c-.27,0-.5-.22-.5-.5s.22-.5.5-.5h3.37c.27,0,.5.22.5.5s-.22.5-.5.5Z"/></svg>