<?xml version="1.0" encoding="UTF-8"?>
<svg id="Layer_1" data-name="Layer 1" xmlns="http://www.w3.org/2000/svg" viewBox="0 0 1845.75 1360.89">
  <defs>
    <style>
      .cls-1 {
        fill: #fff;
      }

      .cls-2 {
        fill: #383838;
      }

      .cls-3 {
        fill: #f8b4b6;
      }

      .cls-4 {
        fill: #fdeced;
      }

      .cls-5 {
        fill: #f2696d;
      }

      .cls-6 {
        fill: #fcd9db;
      }

      .cls-7 {
        fill: #ec1c24;
      }
    </style>
  </defs>
  <g>
    <g>
      <path d="M770.38,680.69h-65v28.75c2.78-3.05,6.67-5.55,11.67-7.5,5-1.94,10.42-2.92,16.25-2.92,10.42,0,19.06,2.36,25.94,7.08,6.87,4.72,11.91,10.83,15.1,18.33,3.2,7.5,4.79,15.62,4.79,24.37,0,16.25-4.58,29.13-13.75,38.64-9.17,9.52-22.08,14.27-38.75,14.27-11.11,0-20.76-1.91-28.96-5.73-8.2-3.82-14.52-9.13-18.96-15.94-4.45-6.8-6.87-14.65-7.29-23.54h34.79c.83,4.31,2.85,7.88,6.04,10.73,3.19,2.85,7.57,4.27,13.13,4.27,6.53,0,11.38-2.08,14.58-6.25,3.19-4.17,4.79-9.72,4.79-16.67s-1.67-12.01-5-15.62c-3.33-3.61-8.2-5.42-14.58-5.42-4.72,0-8.61,1.15-11.67,3.44-3.06,2.29-5.07,5.31-6.04,9.06h-34.37v-90.62h97.29v31.25Z"/>
      <path d="M812.56,667.15c9.24-13.75,24.13-20.62,44.69-20.62s35.45,6.87,44.69,20.62c9.23,13.75,13.85,32.57,13.85,56.46s-4.62,43.12-13.85,56.87c-9.24,13.75-24.13,20.62-44.69,20.62s-35.45-6.88-44.69-20.62c-9.24-13.75-13.85-32.71-13.85-56.87s4.61-42.71,13.85-56.46ZM876.21,691.21c-3.06-7.57-9.38-11.35-18.96-11.35s-15.9,3.79-18.96,11.35c-3.06,7.57-4.58,18.37-4.58,32.4,0,9.45.55,17.26,1.67,23.44,1.11,6.18,3.37,11.18,6.77,15,3.4,3.82,8.44,5.73,15.1,5.73s11.7-1.91,15.1-5.73c3.4-3.82,5.66-8.82,6.77-15,1.11-6.18,1.67-13.99,1.67-23.44,0-14.03-1.53-24.82-4.58-32.4Z"/>
      <path d="M948.39,667.15c9.24-13.75,24.13-20.62,44.69-20.62s35.45,6.87,44.69,20.62c9.23,13.75,13.85,32.57,13.85,56.46s-4.62,43.12-13.85,56.87c-9.24,13.75-24.13,20.62-44.69,20.62s-35.45-6.88-44.69-20.62c-9.24-13.75-13.85-32.71-13.85-56.87s4.61-42.71,13.85-56.46ZM1012.04,691.21c-3.06-7.57-9.38-11.35-18.96-11.35s-15.9,3.79-18.96,11.35c-3.06,7.57-4.58,18.37-4.58,32.4,0,9.45.55,17.26,1.67,23.44,1.11,6.18,3.37,11.18,6.77,15,3.4,3.82,8.44,5.73,15.1,5.73s11.7-1.91,15.1-5.73c3.4-3.82,5.66-8.82,6.77-15,1.11-6.18,1.67-13.99,1.67-23.44,0-14.03-1.53-24.82-4.58-32.4Z"/>
      <path d="M1179.53,744.86h-36.25v37.08h-33.75v-37.08h-36.25v-31.87h36.25v-37.29h33.75v37.29h36.25v31.87Z"/>
    </g>
    <g>
      <path class="cls-2" d="M641.49,963.65c-5.72,5.53-14.45,8.29-26.18,8.29h-19.33v41.97h-13.12v-100.53h32.45c11.34,0,19.98,2.74,25.89,8.22,5.91,5.48,8.87,12.55,8.87,21.2s-2.86,15.31-8.58,20.84ZM631.47,956.36c3.46-3.17,5.19-7.69,5.19-13.56,0-12.4-7.12-18.6-21.35-18.6h-19.33v36.92h19.33c7.31,0,12.69-1.59,16.15-4.76Z"/>
      <path class="cls-2" d="M689.37,937.18c4.28-2.5,9.5-3.75,15.65-3.75v13.56h-3.46c-14.71,0-22.07,7.98-22.07,23.94v42.98h-13.12v-79.04h13.12v12.84c2.31-4.52,5.6-8.03,9.88-10.53Z"/>
      <path class="cls-2" d="M734.51,1010.16c-6.01-3.36-10.72-8.15-14.13-14.35-3.42-6.2-5.12-13.39-5.12-21.56s1.75-15.22,5.26-21.42c3.51-6.2,8.29-10.96,14.35-14.28,6.06-3.32,12.84-4.98,20.34-4.98s14.28,1.66,20.34,4.98c6.06,3.32,10.84,8.05,14.35,14.2,3.51,6.15,5.26,13.32,5.26,21.49s-1.8,15.36-5.41,21.56c-3.61,6.2-8.49,10.99-14.64,14.35-6.15,3.37-12.98,5.05-20.48,5.05s-14.11-1.68-20.12-5.05ZM767.9,1000.35c4.13-2.21,7.47-5.53,10.02-9.95,2.55-4.42,3.82-9.81,3.82-16.15s-1.25-11.73-3.75-16.15c-2.5-4.42-5.77-7.72-9.81-9.88-4.04-2.16-8.41-3.24-13.12-3.24s-9.21,1.08-13.2,3.24c-3.99,2.16-7.19,5.46-9.59,9.88-2.4,4.42-3.61,9.81-3.61,16.15s1.18,11.88,3.53,16.3c2.35,4.42,5.5,7.72,9.45,9.88,3.94,2.16,8.27,3.24,12.98,3.24s9.13-1.1,13.27-3.32Z"/>
      <path class="cls-2" d="M863.02,938.05c5.14,2.98,8.97,6.73,11.47,11.25v-14.42h13.27v80.77c0,7.21-1.54,13.63-4.61,19.25-3.08,5.63-7.48,10.02-13.2,13.2-5.72,3.17-12.38,4.76-19.98,4.76-10.38,0-19.04-2.45-25.96-7.36-6.92-4.9-11.01-11.59-12.26-20.05h12.98c1.44,4.81,4.42,8.68,8.94,11.61,4.52,2.93,9.95,4.4,16.3,4.4,7.21,0,13.1-2.26,17.67-6.78,4.56-4.52,6.85-10.87,6.85-19.04v-16.59c-2.6,4.62-6.44,8.46-11.54,11.54-5.1,3.08-11.06,4.61-17.88,4.61s-13.39-1.73-19.11-5.19c-5.72-3.46-10.22-8.32-13.48-14.57-3.27-6.25-4.9-13.36-4.9-21.35s1.63-15.17,4.9-21.27c3.27-6.11,7.76-10.84,13.48-14.21,5.72-3.36,12.09-5.05,19.11-5.05s12.81,1.49,17.96,4.47ZM870.88,958.67c-2.4-4.42-5.65-7.81-9.74-10.17-4.09-2.35-8.58-3.53-13.48-3.53s-9.38,1.15-13.41,3.46c-4.04,2.31-7.26,5.67-9.66,10.1-2.4,4.42-3.61,9.61-3.61,15.58s1.2,11.32,3.61,15.79c2.4,4.47,5.63,7.89,9.66,10.24,4.04,2.36,8.51,3.53,13.41,3.53s9.4-1.18,13.48-3.53c4.09-2.35,7.33-5.77,9.74-10.24,2.4-4.47,3.61-9.68,3.61-15.65s-1.2-11.15-3.61-15.58Z"/>
      <path class="cls-2" d="M932.97,937.18c4.28-2.5,9.5-3.75,15.65-3.75v13.56h-3.46c-14.71,0-22.07,7.98-22.07,23.94v42.98h-13.12v-79.04h13.12v12.84c2.31-4.52,5.6-8.03,9.88-10.53Z"/>
      <path class="cls-2" d="M963.76,952.83c3.27-6.11,7.76-10.84,13.48-14.21,5.72-3.36,12.09-5.05,19.11-5.05s12.93,1.49,18.03,4.47c5.1,2.98,8.89,6.73,11.39,11.25v-14.42h13.27v79.04h-13.27v-14.71c-2.6,4.61-6.47,8.44-11.61,11.47-5.15,3.03-11.13,4.54-17.96,4.54s-13.36-1.73-19.04-5.19c-5.67-3.46-10.15-8.32-13.41-14.57-3.27-6.25-4.9-13.36-4.9-21.35s1.63-15.17,4.9-21.27ZM1022.17,958.67c-2.4-4.42-5.65-7.81-9.74-10.17-4.09-2.35-8.58-3.53-13.48-3.53s-9.38,1.15-13.41,3.46c-4.04,2.31-7.26,5.67-9.66,10.1-2.4,4.42-3.61,9.61-3.61,15.58s1.2,11.32,3.61,15.79c2.4,4.47,5.63,7.89,9.66,10.24,4.04,2.36,8.51,3.53,13.41,3.53s9.4-1.18,13.48-3.53c4.09-2.35,7.33-5.77,9.74-10.24,2.4-4.47,3.61-9.68,3.61-15.65s-1.2-11.15-3.61-15.58Z"/>
      <path class="cls-2" d="M1172.74,937.26c4.81,2.55,8.6,6.37,11.39,11.47,2.79,5.1,4.18,11.3,4.18,18.6v46.59h-12.98v-44.71c0-7.88-1.95-13.92-5.84-18.1-3.89-4.18-9.16-6.27-15.79-6.27s-12.26,2.19-16.3,6.56c-4.04,4.38-6.06,10.7-6.06,18.97v43.56h-12.98v-44.71c0-7.88-1.95-13.92-5.84-18.1-3.89-4.18-9.16-6.27-15.79-6.27s-12.26,2.19-16.3,6.56c-4.04,4.38-6.06,10.7-6.06,18.97v43.56h-13.12v-79.04h13.12v11.39c2.6-4.13,6.08-7.31,10.46-9.52,4.38-2.21,9.21-3.32,14.5-3.32,6.63,0,12.5,1.49,17.59,4.47,5.1,2.98,8.89,7.36,11.39,13.12,2.21-5.58,5.86-9.9,10.96-12.98,5.09-3.08,10.77-4.61,17.02-4.61s11.63,1.27,16.44,3.82Z"/>
      <path class="cls-2" d="M1221.49,1012.11c-4.81-2.07-8.61-4.95-11.39-8.65-2.79-3.7-4.33-7.95-4.62-12.76h13.56c.38,3.94,2.24,7.16,5.55,9.66,3.32,2.5,7.67,3.75,13.05,3.75,5,0,8.94-1.1,11.83-3.32,2.88-2.21,4.33-5,4.33-8.37s-1.54-6.03-4.61-7.72c-3.08-1.68-7.84-3.34-14.28-4.98-5.87-1.54-10.65-3.1-14.35-4.69-3.7-1.59-6.88-3.94-9.52-7.07-2.65-3.12-3.97-7.23-3.97-12.33,0-4.04,1.2-7.74,3.61-11.11,2.4-3.37,5.82-6.03,10.24-8.01,4.42-1.97,9.47-2.96,15.14-2.96,8.75,0,15.82,2.21,21.2,6.63,5.38,4.42,8.27,10.48,8.65,18.17h-13.13c-.29-4.13-1.95-7.45-4.97-9.95-3.03-2.5-7.09-3.75-12.19-3.75-4.71,0-8.46,1.01-11.25,3.03-2.79,2.02-4.18,4.66-4.18,7.93,0,2.6.84,4.74,2.52,6.42,1.68,1.68,3.8,3.03,6.35,4.04,2.55,1.01,6.08,2.14,10.6,3.39,5.67,1.54,10.29,3.05,13.85,4.54,3.56,1.49,6.61,3.73,9.16,6.71,2.55,2.98,3.87,6.88,3.97,11.68,0,4.33-1.2,8.22-3.61,11.68-2.4,3.46-5.79,6.18-10.17,8.15-4.38,1.97-9.4,2.96-15.07,2.96-6.06,0-11.49-1.03-16.3-3.1Z"/>
    </g>
    <g>
      <path class="cls-6" d="M1069.57,312.12v232.14c0,7.51-4.55,13.64-10.1,13.64h-273c-5.56,0-10.1-6.14-10.1-13.64v-232.14h293.21Z"/>
      <path class="cls-4" d="M1054.41,312.12v232.14c0,7.51-4.55,13.64-10.1,13.64h-257.84c-5.56,0-10.1-6.14-10.1-13.64v-232.14h278.05Z"/>
      <path class="cls-3" d="M1069.57,282.52v27.43h-298.26v-27.43c.35-5.35,4.93-9.42,10.29-9.14h277.69c5.35-.29,9.94,3.79,10.29,9.14Z"/>
      <path class="cls-6" d="M1054.15,282.52v27.43h-282.84v-27.43c.35-5.35,4.93-9.42,10.29-9.14h262.27c5.35-.28,9.93,3.79,10.29,9.14Z"/>
      <g>
        <path class="cls-6" d="M880.59,346.93v29.81c-.03,5.47-4.48,9.9-9.95,9.9h-49.66v-49.66h49.66c5.49.03,9.93,4.47,9.95,9.95Z"/>
        <path class="cls-6" d="M825.94,336.99v49.66h-14.9c-5.47-.02-9.91-4.46-9.92-9.93v-29.81c.02-5.48,4.45-9.92,9.93-9.93h14.89Z"/>
        <path class="cls-6" d="M880.59,421.4v29.81c-.03,5.49-4.47,9.93-9.95,9.95h-49.66v-49.66h49.66c5.47,0,9.92,4.43,9.95,9.9Z"/>
        <path class="cls-6" d="M825.94,411.5v49.67h-14.9c-5.48-.02-9.91-4.47-9.92-9.95v-29.81c.03-5.47,4.46-9.89,9.92-9.91h14.9Z"/>
        <path class="cls-6" d="M880.59,495.92v29.81c-.03,5.47-4.48,9.9-9.95,9.9h-49.66v-49.66h49.66c5.49.03,9.93,4.47,9.95,9.95Z"/>
      </g>
      <g>
        <path class="cls-4" d="M865.43,346.93v29.81c-.03,5.47-4.48,9.9-9.95,9.9h-34.51v-49.66h34.51c5.49.03,9.93,4.47,9.95,9.95Z"/>
        <path class="cls-4" d="M865.43,421.4v29.81c-.03,5.49-4.47,9.93-9.95,9.95h-34.51v-49.66h34.51c5.47,0,9.92,4.43,9.95,9.9Z"/>
        <path class="cls-4" d="M865.43,495.92v29.81c-.03,5.47-4.48,9.9-9.95,9.9h-34.51v-49.66h34.51c5.49.03,9.93,4.47,9.95,9.95Z"/>
      </g>
      <path class="cls-6" d="M825.94,485.98v49.67h-14.9c-5.47-.02-9.91-4.46-9.92-9.93v-29.81c.01-5.48,4.45-9.92,9.93-9.94h14.89Z"/>
      <g>
        <path class="cls-1" d="M776.36,312.12v232.14c0,7.51,4.55,13.64,10.1,13.64h15.16c-5.56,0-10.1-6.14-10.1-13.64v-232.14h-15.16Z"/>
        <path class="cls-1" d="M786.46,282.52c.35-5.35,4.93-9.42,10.29-9.14h-15.16c-5.35-.28-9.94,3.79-10.29,9.14v27.43h15.16v-27.43Z"/>
      </g>
      <polygon class="cls-1" points="771.31 552.45 771.31 486.78 771.31 279.64 781.41 279.64 781.41 486.78 781.41 552.45 771.31 552.45"/>
      <path class="cls-7" d="M774.44,516.68c.29.15.59.25.91.3.33.06.67.09,1.01.1,1.34-.02,2.62-.54,3.59-1.47.46-.48.82-1.05,1.06-1.67.76-1.88.35-4.04-1.06-5.51-.48-.46-1.05-.82-1.67-1.06-.61-.26-1.26-.4-1.92-.4-1.34.02-2.62.54-3.59,1.47-1.95,1.99-1.95,5.18,0,7.17l.76.61c.28.19.59.34.91.45Z"/>
      <path class="cls-7" d="M1059.28,264.48h-272.82c-8.37,0-15.16,6.79-15.16,15.16v212.19c0,2.79,2.26,5.05,5.05,5.05s5.05-2.26,5.05-5.05v-176.82h282.92v237.45c0,2.79-2.26,5.05-5.05,5.05h-272.82c-2.79,0-5.05-2.26-5.05-5.05v-20.21c0-2.79-2.26-5.05-5.05-5.05s-5.05,2.26-5.05,5.05v20.21c0,8.37,6.79,15.16,15.16,15.16h272.82c8.37,0,15.16-6.79,15.16-15.16v-272.82c0-8.37-6.79-15.16-15.16-15.16ZM781.41,304.9v-25.26c0-2.79,2.26-5.05,5.05-5.05h272.82c2.79,0,5.05,2.26,5.05,5.05v25.26h-282.92Z"/>
      <path class="cls-7" d="M806.67,284.69h-5.05c-2.79,0-5.05,2.26-5.05,5.05s2.26,5.05,5.05,5.05h5.05c2.79,0,5.05-2.26,5.05-5.05s-2.26-5.05-5.05-5.05Z"/>
      <path class="cls-7" d="M831.93,284.69h-5.05c-2.79,0-5.05,2.26-5.05,5.05s2.26,5.05,5.05,5.05h5.05c2.79,0,5.05-2.26,5.05-5.05s-2.26-5.05-5.05-5.05Z"/>
      <path class="cls-7" d="M857.19,284.69h-5.05c-2.79,0-5.05,2.26-5.05,5.05s2.26,5.05,5.05,5.05h5.05c2.79,0,5.05-2.26,5.05-5.05s-2.26-5.05-5.05-5.05Z"/>
      <path class="cls-7" d="M1044.12,284.69h-5.05c-2.79,0-5.05,2.26-5.05,5.05s2.26,5.05,5.05,5.05h5.05c2.79,0,5.05-2.26,5.05-5.05s-2.26-5.05-5.05-5.05Z"/>
      <path class="cls-7" d="M811.73,390.79h60.63c8.37,0,15.16-6.79,15.16-15.16v-30.31c0-8.37-6.79-15.16-15.16-15.16h-60.63c-8.37,0-15.16,6.79-15.16,15.16v30.31c0,8.37,6.79,15.16,15.16,15.16ZM877.4,345.32v30.31c0,2.79-2.26,5.05-5.05,5.05h-40.42v-40.42h40.42c2.79,0,5.05,2.26,5.05,5.05ZM806.67,345.32c0-2.79,2.26-5.05,5.05-5.05h10.1v40.42h-10.1c-2.79,0-5.05-2.26-5.05-5.05v-30.31Z"/>
      <path class="cls-7" d="M847.09,365.52h15.16c2.79,0,5.05-2.26,5.05-5.05s-2.26-5.05-5.05-5.05h-15.16c-2.79,0-5.05,2.26-5.05,5.05s2.26,5.05,5.05,5.05Z"/>
      <path class="cls-7" d="M796.57,451.41c0,8.37,6.79,15.16,15.16,15.16h60.63c8.37,0,15.16-6.79,15.16-15.16v-30.31c0-8.37-6.79-15.16-15.16-15.16h-60.63c-8.37,0-15.16,6.79-15.16,15.16v30.31ZM877.4,421.1v30.31c0,2.79-2.26,5.05-5.05,5.05h-40.42v-40.42h40.42c2.79,0,5.05,2.26,5.05,5.05ZM806.67,421.1c0-2.79,2.26-5.05,5.05-5.05h10.1v40.42h-10.1c-2.79,0-5.05-2.26-5.05-5.05v-30.31Z"/>
      <path class="cls-7" d="M847.09,441.31h15.16c2.79,0,5.05-2.26,5.05-5.05s-2.26-5.05-5.05-5.05h-15.16c-2.79,0-5.05,2.26-5.05,5.05s2.26,5.05,5.05,5.05Z"/>
      <path class="cls-7" d="M796.57,527.19c0,8.37,6.79,15.16,15.16,15.16h60.63c8.37,0,15.16-6.79,15.16-15.16v-30.31c0-8.37-6.79-15.16-15.16-15.16h-60.63c-8.37,0-15.16,6.79-15.16,15.16v30.31ZM877.4,496.88v30.31c0,2.79-2.26,5.05-5.05,5.05h-40.42v-40.42h40.42c2.79,0,5.05,2.26,5.05,5.05ZM806.67,496.88c0-2.79,2.26-5.05,5.05-5.05h10.1v40.42h-10.1c-2.79,0-5.05-2.26-5.05-5.05v-30.31Z"/>
      <path class="cls-7" d="M847.09,517.09h15.16c2.79,0,5.05-2.26,5.05-5.05s-2.26-5.05-5.05-5.05h-15.16c-2.79,0-5.05,2.26-5.05,5.05s2.26,5.05,5.05,5.05Z"/>
      <path class="cls-7" d="M907.72,365.52h65.68c2.79,0,5.05-2.26,5.05-5.05s-2.26-5.05-5.05-5.05h-65.68c-2.79,0-5.05,2.26-5.05,5.05s2.26,5.05,5.05,5.05Z"/>
      <path class="cls-7" d="M907.72,441.31h65.68c2.79,0,5.05-2.26,5.05-5.05s-2.26-5.05-5.05-5.05h-65.68c-2.79,0-5.05,2.26-5.05,5.05s2.26,5.05,5.05,5.05Z"/>
      <path class="cls-7" d="M907.72,517.09h65.68c2.79,0,5.05-2.26,5.05-5.05s-2.26-5.05-5.05-5.05h-65.68c-2.79,0-5.05,2.26-5.05,5.05,0,2.79,2.26,5.05,5.05,5.05Z"/>
      <path class="cls-7" d="M1005.19,374.15c1.97,1.97,5.17,1.97,7.14,0l25.26-25.26c1.91-1.98,1.89-5.13-.06-7.08-1.95-1.95-5.1-1.98-7.08-.06l-21.69,21.69-6.53-6.53c-1.98-1.91-5.13-1.89-7.08.06-1.95,1.95-1.98,5.1-.06,7.08l10.1,10.1Z"/>
      <path class="cls-7" d="M995.08,439.83l10.1,10.1c1.97,1.97,5.17,1.97,7.14,0l25.26-25.26c1.91-1.98,1.89-5.13-.06-7.08-1.95-1.95-5.1-1.98-7.08-.06l-21.69,21.69-6.53-6.53c-1.98-1.91-5.13-1.89-7.08.06-1.95,1.95-1.98,5.1-.06,7.08Z"/>
      <path class="cls-7" d="M995.08,515.61l10.1,10.1c1.97,1.97,5.17,1.97,7.14,0l25.26-25.26c1.91-1.98,1.89-5.13-.06-7.08-1.95-1.95-5.1-1.98-7.08-.06l-21.69,21.69-6.53-6.53c-1.98-1.91-5.13-1.89-7.08.06-1.95,1.95-1.98,5.1-.06,7.08Z"/>
    </g>
  </g>
  <path class="cls-5" d="M1608.14,1250.97H237.61c-98,0-177.73-79.73-177.73-177.73V287.64c0-98,79.73-177.73,177.73-177.73h1370.53c98,0,177.73,79.73,177.73,177.73v785.61c0,98-79.73,177.73-177.73,177.73ZM237.61,121.21c-91.77,0-166.43,74.66-166.43,166.43v785.61c0,91.77,74.66,166.43,166.43,166.43h1370.53c91.77,0,166.43-74.66,166.43-166.43V287.64c0-91.77-74.66-166.43-166.43-166.43H237.61Z"/>
</svg>