<?xml version="1.0" encoding="UTF-8"?>
<svg id="Layer_1" data-name="Layer 1" xmlns="http://www.w3.org/2000/svg" viewBox="0 0 1845.75 1360.89">
  <defs>
    <style>
      .cls-1 {
        fill: #383838;
      }

      .cls-2 {
        fill: #f8b4b6;
      }

      .cls-3 {
        fill: #fdeced;
      }

      .cls-4 {
        fill: #f2696d;
      }

      .cls-5 {
        fill: #ec1c24;
      }
    </style>
  </defs>
  <path class="cls-4" d="M1610.92,1253.3H234.82c-98.4,0-178.45-80.05-178.45-178.45V286.04c0-98.4,80.05-178.45,178.45-178.45h1376.1c98.4,0,178.45,80.05,178.45,178.45v788.81c0,98.4-80.05,178.45-178.45,178.45ZM234.82,118.93c-92.15,0-167.11,74.96-167.11,167.11v788.81c0,92.14,74.96,167.11,167.11,167.11h1376.1c92.15,0,167.11-74.97,167.11-167.11V286.04c0-92.15-74.96-167.11-167.11-167.11H234.82Z"/>
  <g>
    <g>
      <path class="cls-1" d="M628.62,1015.61c-5.26-2.37-9.39-5.65-12.38-9.85-2.99-4.2-4.54-9.05-4.63-14.55h14.05c.48,4.73,2.44,8.71,5.86,11.95,3.43,3.23,8.42,4.85,14.99,4.85s11.22-1.57,14.84-4.71c3.62-3.13,5.43-7.17,5.43-12.09,0-3.86-1.06-7-3.19-9.41-2.12-2.41-4.78-4.25-7.96-5.5-3.19-1.25-7.48-2.61-12.89-4.05-6.66-1.74-12-3.47-16-5.21-4.01-1.74-7.43-4.46-10.28-8.18-2.85-3.72-4.27-8.71-4.27-14.99,0-5.5,1.4-10.38,4.2-14.63,2.8-4.25,6.73-7.53,11.8-9.85,5.07-2.31,10.88-3.47,17.45-3.47,9.46,0,17.21,2.37,23.24,7.1,6.03,4.73,9.44,11,10.21,18.82h-14.48c-.48-3.86-2.51-7.26-6.08-10.21-3.57-2.95-8.3-4.42-14.19-4.42-5.5,0-9.99,1.43-13.47,4.27-3.48,2.85-5.21,6.83-5.21,11.95,0,3.67,1.04,6.66,3.11,8.98,2.07,2.32,4.63,4.08,7.67,5.29,3.04,1.21,7.31,2.58,12.82,4.13,6.66,1.83,12.02,3.64,16.07,5.43,4.06,1.79,7.53,4.54,10.43,8.25s4.35,8.76,4.35,15.13c0,4.92-1.3,9.56-3.91,13.9-2.61,4.34-6.47,7.87-11.58,10.57-5.12,2.71-11.15,4.06-18.1,4.06s-12.62-1.18-17.88-3.55Z"/>
      <path class="cls-1" d="M715.58,949.65v46.77c0,3.86.82,6.59,2.46,8.18,1.64,1.59,4.49,2.39,8.54,2.39h9.7v11.15h-11.87c-7.34,0-12.84-1.69-16.51-5.07-3.67-3.38-5.5-8.93-5.5-16.65v-46.77h-10.28v-10.86h10.28v-19.99h13.18v19.99h20.71v10.86h-20.71Z"/>
      <path class="cls-1" d="M822.59,938.79v79.36h-13.18v-11.73c-2.51,4.05-6.01,7.22-10.5,9.48-4.49,2.27-9.44,3.4-14.84,3.4-6.18,0-11.73-1.28-16.65-3.84-4.92-2.55-8.81-6.39-11.66-11.51-2.85-5.12-4.27-11.34-4.27-18.68v-46.48h13.03v44.75c0,7.82,1.98,13.83,5.94,18.03,3.96,4.2,9.36,6.3,16.22,6.3s12.6-2.17,16.65-6.52c4.06-4.35,6.08-10.67,6.08-18.97v-43.59h13.18Z"/>
      <path class="cls-1" d="M844.89,956.81c3.28-6.13,7.79-10.88,13.54-14.26,5.74-3.38,12.19-5.06,19.33-5.06,6.18,0,11.92,1.42,17.23,4.27,5.31,2.85,9.36,6.59,12.16,11.22v-42h13.32v107.16h-13.32v-14.91c-2.61,4.73-6.47,8.62-11.58,11.65-5.12,3.04-11.1,4.56-17.96,4.56s-13.44-1.74-19.19-5.21c-5.74-3.48-10.26-8.35-13.54-14.63-3.28-6.28-4.92-13.42-4.92-21.43s1.64-15.23,4.92-21.36ZM903.54,962.68c-2.41-4.44-5.67-7.84-9.78-10.21-4.1-2.37-8.62-3.55-13.54-3.55s-9.41,1.16-13.47,3.48c-4.06,2.32-7.29,5.7-9.7,10.14-2.41,4.44-3.62,9.65-3.62,15.64s1.21,11.37,3.62,15.86c2.41,4.49,5.65,7.91,9.7,10.28,4.05,2.37,8.54,3.55,13.47,3.55s9.44-1.18,13.54-3.55c4.1-2.37,7.36-5.79,9.78-10.28,2.41-4.49,3.62-9.73,3.62-15.71s-1.21-11.2-3.62-15.64Z"/>
      <path class="cls-1" d="M1014.76,983.39h-63.43c.48,7.82,3.16,13.92,8.04,18.32,4.87,4.39,10.79,6.59,17.74,6.59,5.69,0,10.45-1.33,14.26-3.98,3.81-2.65,6.49-6.2,8.04-10.64h14.19c-2.12,7.63-6.37,13.83-12.74,18.61-6.37,4.78-14.29,7.17-23.75,7.17-7.53,0-14.26-1.69-20.2-5.07-5.94-3.38-10.6-8.18-13.97-14.41-3.38-6.23-5.07-13.44-5.07-21.65s1.64-15.4,4.92-21.58c3.28-6.18,7.89-10.93,13.83-14.26,5.94-3.33,12.77-4.99,20.49-4.99s14.19,1.64,19.98,4.92c5.79,3.29,10.26,7.8,13.4,13.54,3.14,5.74,4.71,12.24,4.71,19.48,0,2.51-.14,5.16-.43,7.97ZM998.25,959.71c-2.22-3.62-5.24-6.37-9.05-8.25-3.82-1.88-8.04-2.82-12.67-2.82-6.66,0-12.33,2.13-17.02,6.37-4.68,4.25-7.36,10.14-8.04,17.67h50.1c0-5.02-1.11-9.34-3.33-12.96Z"/>
      <path class="cls-1" d="M1094.69,946.1c5.98,5.84,8.98,14.26,8.98,25.27v46.77h-13.03v-44.89c0-7.91-1.98-13.98-5.94-18.17-3.96-4.2-9.36-6.3-16.22-6.3s-12.48,2.17-16.58,6.52c-4.11,4.35-6.16,10.67-6.16,18.97v43.88h-13.18v-79.36h13.18v11.29c2.61-4.05,6.16-7.19,10.64-9.41,4.49-2.22,9.43-3.33,14.84-3.33,9.65,0,17.47,2.92,23.46,8.76Z"/>
      <path class="cls-1" d="M1141.32,949.65v46.77c0,3.86.82,6.59,2.46,8.18,1.64,1.59,4.49,2.39,8.54,2.39h9.7v11.15h-11.87c-7.34,0-12.84-1.69-16.51-5.07-3.67-3.38-5.5-8.93-5.5-16.65v-46.77h-10.28v-10.86h10.28v-19.99h13.18v19.99h20.71v10.86h-20.71Z"/>
      <path class="cls-1" d="M1189.69,1016.33c-4.83-2.07-8.64-4.97-11.44-8.69-2.8-3.71-4.35-7.99-4.63-12.82h13.61c.38,3.96,2.24,7.2,5.58,9.71,3.33,2.51,7.7,3.77,13.11,3.77,5.02,0,8.98-1.11,11.87-3.33,2.9-2.22,4.34-5.02,4.34-8.4s-1.54-6.06-4.63-7.75c-3.09-1.69-7.87-3.36-14.34-5-5.89-1.54-10.69-3.11-14.41-4.71-3.72-1.59-6.9-3.96-9.56-7.1-2.66-3.13-3.98-7.26-3.98-12.38,0-4.05,1.21-7.77,3.62-11.15,2.41-3.38,5.84-6.06,10.28-8.04,4.44-1.98,9.51-2.97,15.21-2.97,8.78,0,15.88,2.22,21.29,6.66,5.41,4.44,8.3,10.52,8.69,18.25h-13.18c-.29-4.15-1.95-7.48-4.99-9.99-3.04-2.51-7.12-3.77-12.24-3.77-4.73,0-8.5,1.02-11.29,3.04-2.8,2.03-4.2,4.68-4.2,7.96,0,2.61.84,4.76,2.53,6.45,1.69,1.69,3.81,3.04,6.37,4.05,2.56,1.02,6.1,2.15,10.64,3.4,5.69,1.55,10.33,3.07,13.9,4.56,3.57,1.5,6.64,3.74,9.19,6.73,2.56,2.99,3.89,6.9,3.98,11.73,0,4.35-1.21,8.25-3.62,11.73-2.41,3.47-5.82,6.2-10.21,8.18-4.39,1.98-9.44,2.97-15.13,2.97-6.08,0-11.54-1.04-16.36-3.11Z"/>
    </g>
    <g>
      <path d="M686.4,669.02c9.2-8.09,21.68-12.13,37.44-12.13,10.46,0,19.42,1.81,26.88,5.44,7.46,3.63,13.11,8.58,16.94,14.85,3.83,6.28,5.75,13.32,5.75,21.13,0,9.2-2.3,16.7-6.9,22.49-4.6,5.79-9.97,9.73-16.11,11.82v.84c7.95,2.65,14.22,7.04,18.83,13.18,4.6,6.14,6.9,14.02,6.9,23.64,0,8.65-1.99,16.28-5.96,22.91-3.97,6.62-9.76,11.82-17.36,15.58-7.6,3.77-16.63,5.65-27.09,5.65-16.73,0-30.09-4.11-40.06-12.34-9.97-8.23-15.24-20.64-15.79-37.23h34.72c.14,6.14,1.88,10.98,5.23,14.54,3.35,3.56,8.23,5.33,14.64,5.33,5.44,0,9.65-1.57,12.65-4.71,3-3.14,4.5-7.28,4.5-12.44,0-6.7-2.13-11.54-6.38-14.54-4.26-3-11.05-4.5-20.39-4.5h-6.69v-29.08h6.69c7.11,0,12.86-1.22,17.26-3.66,4.39-2.44,6.59-6.8,6.59-13.07,0-5.02-1.4-8.92-4.18-11.71-2.79-2.79-6.62-4.18-11.5-4.18-5.3,0-9.24,1.61-11.82,4.81-2.58,3.21-4.08,7.18-4.5,11.92h-34.93c.56-14.92,5.44-26.42,14.64-34.51Z"/>
      <path d="M810.97,678.01c9.27-13.81,24.23-20.71,44.87-20.71s35.59,6.9,44.87,20.71c9.27,13.8,13.91,32.7,13.91,56.69s-4.64,43.3-13.91,57.1c-9.28,13.81-24.23,20.71-44.87,20.71s-35.59-6.9-44.87-20.71c-9.28-13.8-13.91-32.84-13.91-57.1s4.63-42.88,13.91-56.69ZM874.87,702.17c-3.07-7.6-9.41-11.4-19.04-11.4s-15.97,3.8-19.03,11.4c-3.07,7.6-4.6,18.44-4.6,32.53,0,9.48.56,17.33,1.67,23.53,1.11,6.21,3.38,11.23,6.8,15.06,3.42,3.84,8.47,5.75,15.17,5.75s11.75-1.92,15.17-5.75c3.41-3.84,5.68-8.86,6.8-15.06,1.11-6.2,1.67-14.05,1.67-23.53,0-14.08-1.54-24.92-4.6-32.53Z"/>
      <path d="M1008.32,813.14l-35.56-48.95v48.95h-35.77v-154.79h35.77v85.55l35.35-47.48h44.14l-48.53,58.57,48.95,58.15h-44.34Z"/>
      <path d="M1172.31,756.03h-36.4v37.23h-33.89v-37.23h-36.4v-32h36.4v-37.44h33.89v37.44h36.4v32Z"/>
    </g>
    <g>
      <path class="cls-3" d="M1009.25,478.39l-40.65,40.65-40.65-40.65h-66.05c-5.61-.02-10.15-4.56-10.16-10.16v-10.16h-76.21v20.32c0,11.22,9.1,20.32,20.32,20.32h86.63c-10.02,11.17-15.54,25.65-15.5,40.65v20.32h203.24v-20.32c0-33.67-27.3-60.97-60.97-60.97Z"/>
      <path class="cls-3" d="M968.6,397.1c20.8.4,41.49-3.13,60.97-10.42,3.51-1.4,6.9-3.07,10.16-4.98v-41.77l-71.13,26.68-71.13-26.68-10.16-3.81,81.3-30.49,35.57,13.36v-28.61c-.02-5.61-4.56-10.15-10.16-10.16h-182.92c-5.61.02-10.15,4.56-10.16,10.16v147.35h110.16c-2.29-6.53-3.46-13.4-3.46-20.32v-30.74c19.49,7.29,40.17,10.82,60.97,10.42Z"/>
      <rect class="cls-2" x="877.14" y="452.99" width="25.4" height="10.16"/>
      <rect class="cls-2" x="800.93" y="473.31" width="10.16" height="10.16"/>
      <rect class="cls-2" x="821.25" y="473.31" width="10.16" height="10.16"/>
      <path class="cls-5" d="M1009.25,473.31h-5.59c19.27-12.05,30.97-33.17,30.99-55.89v-27.44c2.63-1.16,5.19-2.46,7.67-3.9,1.55-.92,2.49-2.59,2.49-4.38v-38.24l6.01-2.25h4.16v36.5c-7.91,2.77-12.08,11.43-9.31,19.34,1.39,3.97,4.37,7.19,8.22,8.88l-8.92,35.66c-.68,2.72.97,5.48,3.69,6.16.4.1.82.15,1.23.15h20.32c2.81,0,5.08-2.27,5.08-5.08,0-.42-.05-.83-.15-1.23l-8.92-35.66c7.67-3.37,11.16-12.33,7.79-20-1.69-3.85-4.91-6.83-8.88-8.22v-41.58c0-2.81-2.27-5.08-5.08-5.08h-9.24l-26.33-9.87v-35.86c-.02-14.02-11.38-25.39-25.4-25.4h-193.08c-14.02.02-25.39,11.38-25.4,25.4v167.67h-5.08c-2.81,0-5.08,2.27-5.08,5.08v20.32c.02,14.02,11.38,25.39,25.4,25.4h76.53c-6.84,10.6-10.48,22.95-10.48,35.57v20.32c0,2.81,2.27,5.08,5.08,5.08h203.24c2.81,0,5.08-2.27,5.08-5.08v-20.32c-.04-36.46-29.59-66.01-66.05-66.05ZM996.98,483.48l-28.38,28.38-28.38-28.38h56.76ZM968.6,473.31c-30.85-.04-55.85-25.04-55.89-55.89v-23.44c18.08,5.66,36.94,8.43,55.89,8.2,18.95.23,37.81-2.53,55.89-8.2v23.44c-.04,30.85-25.04,55.85-55.89,55.89ZM999.08,311.65l-28.7-10.77c-1.15-.42-2.41-.42-3.56,0l-81.3,30.49c-2.63.98-3.97,3.91-2.99,6.54.51,1.38,1.6,2.47,2.99,2.99l6.85,2.57v38.24c0,1.8.95,3.46,2.49,4.37,2.48,1.44,5.05,2.75,7.67,3.91v27.44c.02,5.14.64,10.25,1.84,15.24h-98.38v-142.27c0-2.81,2.27-5.08,5.08-5.08h182.92c2.81,0,5.08,2.27,5.08,5.08v21.25ZM1034.65,378.72c-2.28,1.2-4.63,2.29-7.02,3.26-18.87,7.04-38.9,10.45-59.03,10.05-20.14.41-40.18-3-59.06-10.05-2.38-.96-4.72-2.04-6.99-3.24v-31.46l64.26,24.1c1.15.42,2.41.42,3.56,0l64.28-24.1v31.45ZM1060.06,386.94c2.81,0,5.08,2.27,5.08,5.08s-2.27,5.08-5.08,5.08-5.08-2.27-5.08-5.08,2.27-5.08,5.08-5.08ZM1056.4,437.75l3.65-14.62,3.65,14.62h-7.31ZM1021.85,341.21l-53.25,19.98-66.83-25.06,66.83-25.06,53.28,19.98h-53.28v10.16h53.25ZM790.76,285.32c0-8.42,6.82-15.24,15.24-15.24h193.08c8.42,0,15.24,6.82,15.24,15.24v32.05l-5.08-1.91v-25.06c0-8.42-6.82-15.24-15.24-15.24h-182.92c-8.42,0-15.24,6.82-15.24,15.24v147.35c0,2.81,2.27,5.08,5.08,5.08h106.7c5.3,12.59,14.34,23.23,25.91,30.49h-71.64c-2.81,0-5.08-2.27-5.08-5.08v-10.16c0-2.81-2.27-5.08-5.08-5.08h-60.97v-167.67ZM795.84,493.64c-8.42,0-15.24-6.82-15.24-15.24v-15.24h66.05v5.08c0,8.42,6.82,15.24,15.24,15.24h30.99c-4.57,2.87-8.77,6.28-12.51,10.16h-84.53ZM1065.14,554.61h-193.08v-15.24c.05-30.06,23.85-54.7,53.89-55.79l30.38,30.38h-63.95v10.16h152.43v-10.16h-63.95l30.38-30.38c30.04,1.09,53.84,25.73,53.89,55.79v15.24Z"/>
    </g>
  </g>
</svg>