<?xml version="1.0" encoding="UTF-8"?>
<svg id="Layer_1" data-name="Layer 1" xmlns="http://www.w3.org/2000/svg" viewBox="0 0 908.08 338.34">
  <defs>
    <style>
      .cls-1 {
        fill: #fff;
      }

      .cls-2 {
        fill: #383838;
      }

      .cls-3 {
        fill: #f8b4b6;
      }

      .cls-4 {
        fill: #fdeced;
      }

      .cls-5 {
        fill: #f2696d;
      }

      .cls-6 {
        fill: #fcd9db;
      }

      .cls-7 {
        fill: #ec1c24;
      }
    </style>
  </defs>
  <g>
    <g>
      <g>
        <path d="M457,100.22h-27.67v12.24c1.18-1.3,2.84-2.36,4.97-3.19,2.13-.83,4.44-1.24,6.92-1.24,4.44,0,8.12,1.01,11.04,3.02,2.93,2.01,5.07,4.61,6.43,7.81,1.36,3.19,2.04,6.65,2.04,10.38,0,6.92-1.95,12.4-5.85,16.45-3.9,4.05-9.4,6.08-16.5,6.08-4.73,0-8.84-.81-12.33-2.44-3.49-1.63-6.18-3.89-8.07-6.79-1.89-2.9-2.93-6.24-3.1-10.02h14.81c.35,1.83,1.21,3.36,2.57,4.57,1.36,1.21,3.22,1.82,5.59,1.82,2.78,0,4.85-.89,6.21-2.66,1.36-1.77,2.04-4.14,2.04-7.1s-.71-5.11-2.13-6.65c-1.42-1.54-3.49-2.31-6.21-2.31-2.01,0-3.67.49-4.97,1.46-1.3.98-2.16,2.26-2.57,3.86h-14.64v-38.58h41.42v13.3Z"/>
        <path d="M474.97,94.45c3.93-5.85,10.27-8.78,19.03-8.78s15.09,2.93,19.03,8.78c3.93,5.85,5.9,13.87,5.9,24.04s-1.97,18.36-5.9,24.21c-3.93,5.85-10.28,8.78-19.03,8.78s-15.09-2.93-19.03-8.78c-3.93-5.85-5.9-13.93-5.9-24.21s1.96-18.18,5.9-24.04ZM502.06,104.7c-1.3-3.22-3.99-4.83-8.07-4.83s-6.77,1.61-8.07,4.83c-1.3,3.22-1.95,7.82-1.95,13.79,0,4.02.24,7.35.71,9.98.47,2.63,1.43,4.76,2.88,6.39,1.45,1.63,3.59,2.44,6.43,2.44s4.98-.81,6.43-2.44c1.45-1.63,2.41-3.75,2.88-6.39.47-2.63.71-5.96.71-9.98,0-5.97-.65-10.57-1.95-13.79Z"/>
        <path d="M532.8,94.45c3.93-5.85,10.27-8.78,19.03-8.78s15.09,2.93,19.03,8.78c3.93,5.85,5.9,13.87,5.9,24.04s-1.97,18.36-5.9,24.21c-3.93,5.85-10.28,8.78-19.03,8.78s-15.09-2.93-19.03-8.78c-3.93-5.85-5.9-13.93-5.9-24.21s1.96-18.18,5.9-24.04ZM559.9,104.7c-1.3-3.22-3.99-4.83-8.07-4.83s-6.77,1.61-8.07,4.83c-1.3,3.22-1.95,7.82-1.95,13.79,0,4.02.24,7.35.71,9.98.47,2.63,1.43,4.76,2.88,6.39,1.45,1.63,3.59,2.44,6.43,2.44s4.98-.81,6.43-2.44c1.45-1.63,2.41-3.75,2.88-6.39.47-2.63.71-5.96.71-9.98,0-5.97-.65-10.57-1.95-13.79Z"/>
        <path d="M631.21,127.54h-15.43v15.79h-14.37v-15.79h-15.43v-13.57h15.43v-15.88h14.37v15.88h15.43v13.57Z"/>
      </g>
      <g>
        <path class="cls-2" d="M437.11,213.87c-2.44,2.35-6.15,3.53-11.15,3.53h-8.23v17.87h-5.59v-42.8h13.82c4.83,0,8.5,1.17,11.02,3.5,2.52,2.33,3.78,5.34,3.78,9.03s-1.22,6.52-3.65,8.87ZM432.84,210.77c1.47-1.35,2.21-3.27,2.21-5.77,0-5.28-3.03-7.92-9.09-7.92h-8.23v15.72h8.23c3.11,0,5.4-.68,6.88-2.03Z"/>
        <path class="cls-2" d="M457.5,202.6c1.82-1.06,4.04-1.6,6.66-1.6v5.77h-1.47c-6.26,0-9.4,3.4-9.4,10.19v18.3h-5.59v-33.65h5.59v5.47c.98-1.92,2.38-3.42,4.21-4.48Z"/>
        <path class="cls-2" d="M476.72,233.67c-2.56-1.43-4.57-3.47-6.02-6.11-1.45-2.64-2.18-5.7-2.18-9.18s.75-6.48,2.24-9.12c1.49-2.64,3.53-4.67,6.11-6.08,2.58-1.41,5.46-2.12,8.66-2.12s6.08.71,8.66,2.12,4.61,3.43,6.11,6.05c1.49,2.62,2.24,5.67,2.24,9.15s-.77,6.54-2.3,9.18-3.61,4.68-6.23,6.11c-2.62,1.43-5.53,2.15-8.72,2.15s-6.01-.72-8.57-2.15ZM490.94,229.5c1.76-.94,3.18-2.35,4.27-4.24,1.08-1.88,1.63-4.18,1.63-6.88s-.53-4.99-1.6-6.88c-1.07-1.88-2.46-3.29-4.18-4.21-1.72-.92-3.58-1.38-5.59-1.38s-3.92.46-5.62,1.38c-1.7.92-3.06,2.32-4.08,4.21-1.02,1.88-1.54,4.18-1.54,6.88s.5,5.06,1.5,6.94c1,1.88,2.34,3.29,4.02,4.21,1.68.92,3.52,1.38,5.53,1.38s3.89-.47,5.65-1.41Z"/>
        <path class="cls-2" d="M531.43,202.97c2.19,1.27,3.82,2.87,4.88,4.79v-6.14h5.65v34.39c0,3.07-.66,5.8-1.97,8.2-1.31,2.4-3.18,4.27-5.62,5.62-2.44,1.35-5.27,2.03-8.5,2.03-4.42,0-8.11-1.04-11.05-3.13-2.95-2.09-4.69-4.93-5.22-8.54h5.53c.61,2.05,1.88,3.69,3.81,4.94,1.92,1.25,4.24,1.87,6.94,1.87,3.07,0,5.58-.96,7.52-2.89,1.94-1.92,2.92-4.63,2.92-8.11v-7.06c-1.11,1.97-2.74,3.6-4.91,4.91-2.17,1.31-4.71,1.97-7.61,1.97s-5.7-.74-8.14-2.21c-2.44-1.47-4.35-3.54-5.74-6.2-1.39-2.66-2.09-5.69-2.09-9.09s.7-6.46,2.09-9.06c1.39-2.6,3.31-4.62,5.74-6.05,2.44-1.43,5.15-2.15,8.14-2.15s5.45.64,7.65,1.9ZM534.78,211.75c-1.02-1.88-2.41-3.33-4.15-4.33-1.74-1-3.65-1.5-5.74-1.5s-3.99.49-5.71,1.47-3.09,2.42-4.11,4.3c-1.02,1.88-1.54,4.09-1.54,6.63s.51,4.82,1.54,6.72c1.02,1.9,2.4,3.36,4.11,4.36,1.72,1,3.62,1.5,5.71,1.5s4-.5,5.74-1.5c1.74-1,3.12-2.46,4.15-4.36,1.02-1.9,1.54-4.12,1.54-6.66s-.51-4.75-1.54-6.63Z"/>
        <path class="cls-2" d="M561.22,202.6c1.82-1.06,4.04-1.6,6.66-1.6v5.77h-1.47c-6.26,0-9.4,3.4-9.4,10.19v18.3h-5.59v-33.65h5.59v5.47c.98-1.92,2.38-3.42,4.21-4.48Z"/>
        <path class="cls-2" d="M574.33,209.27c1.39-2.6,3.31-4.62,5.74-6.05,2.44-1.43,5.15-2.15,8.14-2.15s5.51.64,7.68,1.9c2.17,1.27,3.79,2.87,4.85,4.79v-6.14h5.65v33.65h-5.65v-6.26c-1.11,1.97-2.75,3.59-4.94,4.88-2.19,1.29-4.74,1.93-7.65,1.93s-5.69-.74-8.11-2.21c-2.42-1.47-4.32-3.54-5.71-6.2-1.39-2.66-2.09-5.69-2.09-9.09s.7-6.46,2.09-9.06ZM599.2,211.75c-1.02-1.88-2.41-3.33-4.15-4.33-1.74-1-3.65-1.5-5.74-1.5s-3.99.49-5.71,1.47-3.09,2.42-4.11,4.3c-1.02,1.88-1.54,4.09-1.54,6.63s.51,4.82,1.54,6.72c1.02,1.9,2.4,3.36,4.11,4.36,1.72,1,3.62,1.5,5.71,1.5s4-.5,5.74-1.5c1.74-1,3.12-2.46,4.15-4.36,1.02-1.9,1.54-4.12,1.54-6.66s-.51-4.75-1.54-6.63Z"/>
        <path class="cls-2" d="M663.3,202.63c2.05,1.09,3.66,2.71,4.85,4.88,1.19,2.17,1.78,4.81,1.78,7.92v19.83h-5.53v-19.04c0-3.36-.83-5.93-2.49-7.71-1.66-1.78-3.9-2.67-6.72-2.67s-5.22.93-6.94,2.79c-1.72,1.86-2.58,4.55-2.58,8.08v18.54h-5.53v-19.04c0-3.36-.83-5.93-2.49-7.71-1.66-1.78-3.9-2.67-6.72-2.67s-5.22.93-6.94,2.79c-1.72,1.86-2.58,4.55-2.58,8.08v18.54h-5.59v-33.65h5.59v4.85c1.11-1.76,2.59-3.11,4.45-4.05,1.86-.94,3.92-1.41,6.17-1.41,2.82,0,5.32.64,7.49,1.9,2.17,1.27,3.79,3.13,4.85,5.59.94-2.37,2.5-4.22,4.67-5.53,2.17-1.31,4.58-1.97,7.25-1.97s4.95.54,7,1.63Z"/>
        <path class="cls-2" d="M684.06,234.5c-2.05-.88-3.66-2.11-4.85-3.68-1.19-1.58-1.84-3.39-1.96-5.43h5.77c.16,1.68.95,3.05,2.36,4.11,1.41,1.07,3.26,1.6,5.56,1.6,2.13,0,3.81-.47,5.04-1.41,1.23-.94,1.84-2.13,1.84-3.56s-.66-2.57-1.96-3.29c-1.31-.72-3.34-1.42-6.08-2.12-2.5-.65-4.53-1.32-6.11-2-1.58-.68-2.93-1.68-4.05-3.01-1.13-1.33-1.69-3.08-1.69-5.25,0-1.72.51-3.29,1.54-4.73,1.02-1.43,2.48-2.57,4.36-3.41,1.88-.84,4.03-1.26,6.45-1.26,3.72,0,6.73.94,9.03,2.82,2.29,1.88,3.52,4.46,3.68,7.74h-5.59c-.12-1.76-.83-3.17-2.12-4.24-1.29-1.06-3.02-1.6-5.19-1.6-2.01,0-3.6.43-4.79,1.29-1.19.86-1.78,1.99-1.78,3.38,0,1.11.36,2.02,1.07,2.73.72.72,1.62,1.29,2.7,1.72,1.08.43,2.59.91,4.51,1.44,2.42.66,4.38,1.3,5.9,1.93,1.51.63,2.81,1.59,3.9,2.86,1.08,1.27,1.65,2.93,1.69,4.97,0,1.84-.51,3.5-1.54,4.97-1.02,1.47-2.47,2.63-4.33,3.47-1.86.84-4,1.26-6.42,1.26-2.58,0-4.89-.44-6.94-1.32Z"/>
      </g>
    </g>
    <g>
      <path class="cls-6" d="M372.24,88.23v98.84c0,3.2-1.94,5.81-4.3,5.81h-116.24c-2.37,0-4.3-2.62-4.3-5.81v-98.84h124.84Z"/>
      <path class="cls-4" d="M365.79,88.23v98.84c0,3.2-1.94,5.81-4.3,5.81h-109.78c-2.37,0-4.3-2.62-4.3-5.81v-98.84h118.38Z"/>
      <path class="cls-3" d="M372.24,75.63v11.68h-126.99v-11.68c.15-2.28,2.1-4.01,4.38-3.89h118.23c2.28-.12,4.23,1.61,4.38,3.89Z"/>
      <path class="cls-6" d="M365.68,75.63v11.68h-120.43v-11.68c.15-2.28,2.1-4.01,4.38-3.89h111.67c2.28-.12,4.23,1.61,4.38,3.89Z"/>
      <g>
        <path class="cls-6" d="M291.78,103.05v12.69c-.01,2.33-1.91,4.21-4.24,4.22h-21.14v-21.15h21.15c2.34.01,4.23,1.9,4.24,4.24Z"/>
        <path class="cls-6" d="M268.51,98.82v21.15h-6.35c-2.33,0-4.22-1.9-4.22-4.23v-12.69c0-2.33,1.9-4.22,4.23-4.23h6.34Z"/>
        <path class="cls-6" d="M291.78,134.76v12.69c-.01,2.34-1.9,4.23-4.24,4.24h-21.14v-21.15h21.15c2.33,0,4.22,1.89,4.24,4.22Z"/>
        <path class="cls-6" d="M268.51,130.54v21.15h-6.35c-2.33,0-4.22-1.9-4.22-4.24v-12.69c.01-2.33,1.9-4.21,4.22-4.22h6.35Z"/>
        <path class="cls-6" d="M291.78,166.49v12.69c-.01,2.33-1.91,4.21-4.24,4.22h-21.14v-21.15h21.15c2.34.01,4.23,1.9,4.24,4.24Z"/>
      </g>
      <g>
        <path class="cls-4" d="M285.33,103.05v12.69c-.01,2.33-1.91,4.21-4.24,4.22h-14.69v-21.15h14.69c2.34.01,4.23,1.9,4.24,4.24Z"/>
        <path class="cls-4" d="M285.33,134.76v12.69c-.01,2.34-1.9,4.23-4.24,4.24h-14.69v-21.15h14.69c2.33,0,4.22,1.89,4.24,4.22Z"/>
        <path class="cls-4" d="M285.33,166.49v12.69c-.01,2.33-1.91,4.21-4.24,4.22h-14.69v-21.15h14.69c2.34.01,4.23,1.9,4.24,4.24Z"/>
      </g>
      <path class="cls-6" d="M268.51,162.26v21.15h-6.35c-2.33,0-4.22-1.9-4.22-4.23v-12.69c0-2.33,1.9-4.22,4.23-4.23h6.34Z"/>
      <g>
        <path class="cls-1" d="M247.4,88.23v98.84c0,3.2,1.94,5.81,4.3,5.81h6.45c-2.37,0-4.3-2.62-4.3-5.81v-98.84h-6.45Z"/>
        <path class="cls-1" d="M251.7,75.63c.15-2.28,2.1-4.01,4.38-3.89h-6.45c-2.28-.12-4.23,1.61-4.38,3.89v11.68h6.45v-11.68Z"/>
      </g>
      <polygon class="cls-1" points="245.25 190.56 245.25 162.59 245.25 74.4 249.55 74.4 249.55 162.59 249.55 190.56 245.25 190.56"/>
      <path class="cls-7" d="M246.59,175.33c.12.06.25.11.39.13.14.02.29.04.43.04.57,0,1.11-.23,1.53-.62.19-.21.35-.45.45-.71.32-.8.15-1.72-.45-2.34-.21-.19-.45-.35-.71-.45-.26-.11-.54-.17-.82-.17-.57,0-1.11.23-1.53.62-.83.85-.83,2.21,0,3.05l.32.26c.12.08.25.15.39.19Z"/>
      <path class="cls-7" d="M367.86,67.95h-116.16c-3.56,0-6.45,2.89-6.45,6.45v90.34c0,1.19.96,2.15,2.15,2.15s2.15-.96,2.15-2.15v-75.29h120.46v101.1c0,1.19-.96,2.15-2.15,2.15h-116.16c-1.19,0-2.15-.96-2.15-2.15v-8.6c0-1.19-.96-2.15-2.15-2.15s-2.15.96-2.15,2.15v8.6c0,3.56,2.89,6.45,6.45,6.45h116.16c3.56,0,6.45-2.89,6.45-6.45v-116.16c0-3.56-2.89-6.45-6.45-6.45ZM249.55,85.16v-10.76c0-1.19.96-2.15,2.15-2.15h116.16c1.19,0,2.15.96,2.15,2.15v10.76h-120.46Z"/>
      <path class="cls-7" d="M260.31,76.55h-2.15c-1.19,0-2.15.96-2.15,2.15s.96,2.15,2.15,2.15h2.15c1.19,0,2.15-.96,2.15-2.15s-.96-2.15-2.15-2.15Z"/>
      <path class="cls-7" d="M271.06,76.55h-2.15c-1.19,0-2.15.96-2.15,2.15s.96,2.15,2.15,2.15h2.15c1.19,0,2.15-.96,2.15-2.15s-.96-2.15-2.15-2.15Z"/>
      <path class="cls-7" d="M281.82,76.55h-2.15c-1.19,0-2.15.96-2.15,2.15s.96,2.15,2.15,2.15h2.15c1.19,0,2.15-.96,2.15-2.15s-.96-2.15-2.15-2.15Z"/>
      <path class="cls-7" d="M361.41,76.55h-2.15c-1.19,0-2.15.96-2.15,2.15s.96,2.15,2.15,2.15h2.15c1.19,0,2.15-.96,2.15-2.15s-.96-2.15-2.15-2.15Z"/>
      <path class="cls-7" d="M262.46,121.72h25.81c3.56,0,6.45-2.89,6.45-6.45v-12.91c0-3.56-2.89-6.45-6.45-6.45h-25.81c-3.56,0-6.45,2.89-6.45,6.45v12.91c0,3.56,2.89,6.45,6.45,6.45ZM290.42,102.36v12.91c0,1.19-.96,2.15-2.15,2.15h-17.21v-17.21h17.21c1.19,0,2.15.96,2.15,2.15ZM260.31,102.36c0-1.19.96-2.15,2.15-2.15h4.3v17.21h-4.3c-1.19,0-2.15-.96-2.15-2.15v-12.91Z"/>
      <path class="cls-7" d="M277.52,110.97h6.45c1.19,0,2.15-.96,2.15-2.15s-.96-2.15-2.15-2.15h-6.45c-1.19,0-2.15.96-2.15,2.15s.96,2.15,2.15,2.15Z"/>
      <path class="cls-7" d="M256.01,147.54c0,3.56,2.89,6.45,6.45,6.45h25.81c3.56,0,6.45-2.89,6.45-6.45v-12.91c0-3.56-2.89-6.45-6.45-6.45h-25.81c-3.56,0-6.45,2.89-6.45,6.45v12.91ZM290.42,134.63v12.91c0,1.19-.96,2.15-2.15,2.15h-17.21v-17.21h17.21c1.19,0,2.15.96,2.15,2.15ZM260.31,134.63c0-1.19.96-2.15,2.15-2.15h4.3v17.21h-4.3c-1.19,0-2.15-.96-2.15-2.15v-12.91Z"/>
      <path class="cls-7" d="M277.52,143.23h6.45c1.19,0,2.15-.96,2.15-2.15s-.96-2.15-2.15-2.15h-6.45c-1.19,0-2.15.96-2.15,2.15s.96,2.15,2.15,2.15Z"/>
      <path class="cls-7" d="M256.01,179.8c0,3.56,2.89,6.45,6.45,6.45h25.81c3.56,0,6.45-2.89,6.45-6.45v-12.91c0-3.56-2.89-6.45-6.45-6.45h-25.81c-3.56,0-6.45,2.89-6.45,6.45v12.91ZM290.42,166.9v12.91c0,1.19-.96,2.15-2.15,2.15h-17.21v-17.21h17.21c1.19,0,2.15.96,2.15,2.15ZM260.31,166.9c0-1.19.96-2.15,2.15-2.15h4.3v17.21h-4.3c-1.19,0-2.15-.96-2.15-2.15v-12.91Z"/>
      <path class="cls-7" d="M277.52,175.5h6.45c1.19,0,2.15-.96,2.15-2.15s-.96-2.15-2.15-2.15h-6.45c-1.19,0-2.15.96-2.15,2.15s.96,2.15,2.15,2.15Z"/>
      <path class="cls-7" d="M303.33,110.97h27.96c1.19,0,2.15-.96,2.15-2.15s-.96-2.15-2.15-2.15h-27.96c-1.19,0-2.15.96-2.15,2.15s.96,2.15,2.15,2.15Z"/>
      <path class="cls-7" d="M303.33,143.23h27.96c1.19,0,2.15-.96,2.15-2.15s-.96-2.15-2.15-2.15h-27.96c-1.19,0-2.15.96-2.15,2.15s.96,2.15,2.15,2.15Z"/>
      <path class="cls-7" d="M303.33,175.5h27.96c1.19,0,2.15-.96,2.15-2.15s-.96-2.15-2.15-2.15h-27.96c-1.19,0-2.15.96-2.15,2.15,0,1.19.96,2.15,2.15,2.15Z"/>
      <path class="cls-7" d="M344.83,114.64c.84.84,2.2.84,3.04,0l10.76-10.76c.82-.84.8-2.19-.03-3.02-.83-.83-2.17-.84-3.02-.03l-9.23,9.23-2.78-2.78c-.84-.82-2.19-.8-3.02.03-.83.83-.84,2.17-.03,3.02l4.3,4.3Z"/>
      <path class="cls-7" d="M340.53,142.6l4.3,4.3c.84.84,2.2.84,3.04,0l10.76-10.76c.82-.84.8-2.19-.03-3.02-.83-.83-2.17-.84-3.02-.03l-9.23,9.23-2.78-2.78c-.84-.82-2.19-.8-3.02.03-.83.83-.84,2.17-.03,3.02Z"/>
      <path class="cls-7" d="M340.53,174.87l4.3,4.3c.84.84,2.2.84,3.04,0l10.76-10.76c.82-.84.8-2.19-.03-3.02-.83-.83-2.17-.84-3.02-.03l-9.23,9.23-2.78-2.78c-.84-.82-2.19-.8-3.02.03-.83.83-.84,2.17-.03,3.02Z"/>
    </g>
  </g>
  <path class="cls-5" d="M855.11,300.31H52.97c-22.34,0-40.52-18.18-40.52-40.52V78.55c0-22.34,18.18-40.52,40.52-40.52h802.13c22.34,0,40.52,18.18,40.52,40.52v181.23c0,22.34-18.18,40.52-40.52,40.52ZM52.97,41.03c-20.69,0-37.52,16.83-37.52,37.52v181.23c0,20.69,16.83,37.52,37.52,37.52h802.13c20.69,0,37.52-16.83,37.52-37.52V78.55c0-20.69-16.83-37.52-37.52-37.52H52.97Z"/>
</svg>