<?xml version="1.0" encoding="UTF-8"?>
<svg id="Layer_1" data-name="Layer 1" xmlns="http://www.w3.org/2000/svg" viewBox="0 0 908.08 338.34">
  <defs>
    <style>
      .cls-1 {
        fill: #383838;
      }

      .cls-2 {
        fill: #f8b4b6;
      }

      .cls-3 {
        fill: #fdeced;
      }

      .cls-4 {
        fill: #f2696d;
      }

      .cls-5 {
        fill: #ec1c24;
      }
    </style>
  </defs>
  <path class="cls-4" d="M855.11,300.31H52.97c-22.34,0-40.52-18.18-40.52-40.52V78.55c0-22.34,18.18-40.52,40.52-40.52h802.13c22.34,0,40.52,18.18,40.52,40.52v181.23c0,22.34-18.18,40.52-40.52,40.52ZM52.97,41.03c-20.69,0-37.52,16.83-37.52,37.52v181.23c0,20.69,16.83,37.52,37.52,37.52h802.13c20.69,0,37.52-16.83,37.52-37.52V78.55c0-20.69-16.83-37.52-37.52-37.52H52.97Z"/>
  <g>
    <g>
      <g>
        <path class="cls-1" d="M410.68,230.1c-2.23-1-3.98-2.4-5.25-4.18-1.27-1.78-1.92-3.84-1.97-6.17h5.96c.2,2.01,1.03,3.7,2.49,5.07,1.45,1.37,3.57,2.06,6.36,2.06s4.76-.67,6.29-2,2.3-3.04,2.3-5.13c0-1.64-.45-2.97-1.35-3.99-.9-1.02-2.03-1.8-3.38-2.33-1.35-.53-3.17-1.11-5.47-1.72-2.82-.74-5.09-1.47-6.79-2.21-1.7-.74-3.15-1.89-4.36-3.47-1.21-1.58-1.81-3.69-1.81-6.36,0-2.33.59-4.4,1.78-6.2,1.19-1.8,2.86-3.19,5-4.18,2.15-.98,4.62-1.47,7.4-1.47,4.01,0,7.3,1,9.86,3.01,2.56,2.01,4,4.67,4.33,7.98h-6.14c-.21-1.64-1.07-3.08-2.58-4.33-1.52-1.25-3.52-1.87-6.02-1.87-2.33,0-4.24.6-5.71,1.81-1.47,1.21-2.21,2.9-2.21,5.07,0,1.56.44,2.83,1.32,3.81.88.98,1.97,1.73,3.25,2.24s3.1,1.1,5.43,1.75c2.82.78,5.1,1.55,6.82,2.3,1.72.76,3.19,1.92,4.42,3.5,1.23,1.58,1.84,3.72,1.84,6.42,0,2.09-.55,4.05-1.66,5.89-1.11,1.84-2.74,3.34-4.91,4.48-2.17,1.15-4.73,1.72-7.68,1.72s-5.35-.5-7.58-1.5Z"/>
        <path class="cls-1" d="M447.55,202.13v19.83c0,1.64.35,2.79,1.04,3.47.7.67,1.9,1.01,3.62,1.01h4.11v4.73h-5.04c-3.11,0-5.45-.72-7-2.15-1.56-1.43-2.33-3.79-2.33-7.06v-19.83h-4.36v-4.61h4.36v-8.47h5.59v8.47h8.78v4.61h-8.78Z"/>
        <path class="cls-1" d="M492.93,197.53v33.65h-5.59v-4.97c-1.06,1.72-2.55,3.06-4.45,4.02-1.9.96-4,1.44-6.29,1.44-2.62,0-4.97-.54-7.06-1.63s-3.74-2.71-4.94-4.88c-1.21-2.17-1.81-4.81-1.81-7.92v-19.71h5.53v18.97c0,3.32.84,5.87,2.52,7.65,1.68,1.78,3.97,2.67,6.88,2.67s5.34-.92,7.06-2.76c1.72-1.84,2.58-4.52,2.58-8.04v-18.48h5.59Z"/>
        <path class="cls-1" d="M502.39,205.17c1.39-2.6,3.31-4.62,5.74-6.05,2.44-1.43,5.17-2.15,8.2-2.15,2.62,0,5.06.6,7.31,1.81,2.25,1.21,3.97,2.79,5.16,4.76v-17.81h5.65v45.44h-5.65v-6.33c-1.11,2.01-2.74,3.65-4.91,4.94-2.17,1.29-4.71,1.93-7.61,1.93s-5.7-.74-8.14-2.21c-2.44-1.47-4.35-3.54-5.74-6.2-1.39-2.66-2.09-5.69-2.09-9.09s.7-6.46,2.09-9.06ZM527.26,207.66c-1.02-1.88-2.41-3.33-4.15-4.33-1.74-1-3.65-1.5-5.74-1.5s-3.99.49-5.71,1.47-3.09,2.42-4.11,4.3c-1.02,1.88-1.54,4.09-1.54,6.63s.51,4.82,1.54,6.72c1.02,1.9,2.4,3.36,4.11,4.36,1.72,1,3.62,1.5,5.71,1.5s4-.5,5.74-1.5c1.74-1,3.12-2.46,4.15-4.36,1.02-1.9,1.54-4.12,1.54-6.66s-.51-4.75-1.54-6.63Z"/>
        <path class="cls-1" d="M574.42,216.44h-26.9c.2,3.32,1.34,5.91,3.41,7.77,2.07,1.86,4.57,2.79,7.52,2.79,2.42,0,4.43-.56,6.05-1.69,1.62-1.13,2.75-2.63,3.41-4.51h6.02c-.9,3.23-2.7,5.86-5.4,7.89-2.7,2.03-6.06,3.04-10.07,3.04-3.19,0-6.05-.72-8.57-2.15-2.52-1.43-4.49-3.47-5.93-6.11-1.43-2.64-2.15-5.7-2.15-9.18s.7-6.53,2.09-9.15c1.39-2.62,3.35-4.64,5.86-6.05,2.52-1.41,5.41-2.12,8.69-2.12s6.02.7,8.47,2.09c2.46,1.39,4.35,3.31,5.68,5.74,1.33,2.44,2,5.19,2,8.26,0,1.07-.06,2.19-.18,3.38ZM567.42,206.4c-.94-1.54-2.22-2.7-3.84-3.5-1.62-.8-3.41-1.2-5.37-1.2-2.82,0-5.23.9-7.22,2.7-1.99,1.8-3.12,4.3-3.41,7.49h21.25c0-2.13-.47-3.96-1.41-5.5Z"/>
        <path class="cls-1" d="M608.32,200.63c2.54,2.48,3.81,6.05,3.81,10.72v19.83h-5.53v-19.04c0-3.36-.84-5.93-2.52-7.71-1.68-1.78-3.97-2.67-6.88-2.67s-5.29.92-7.03,2.76c-1.74,1.84-2.61,4.52-2.61,8.04v18.61h-5.59v-33.65h5.59v4.79c1.11-1.72,2.61-3.05,4.51-3.99,1.9-.94,4-1.41,6.29-1.41,4.09,0,7.41,1.24,9.95,3.71Z"/>
        <path class="cls-1" d="M628.09,202.13v19.83c0,1.64.35,2.79,1.04,3.47.7.67,1.9,1.01,3.62,1.01h4.11v4.73h-5.04c-3.11,0-5.45-.72-7-2.15-1.56-1.43-2.33-3.79-2.33-7.06v-19.83h-4.36v-4.61h4.36v-8.47h5.59v8.47h8.78v4.61h-8.78Z"/>
        <path class="cls-1" d="M648.6,230.41c-2.05-.88-3.66-2.11-4.85-3.68-1.19-1.58-1.84-3.39-1.96-5.43h5.77c.16,1.68.95,3.05,2.36,4.11,1.41,1.07,3.26,1.6,5.56,1.6,2.13,0,3.81-.47,5.04-1.41,1.23-.94,1.84-2.13,1.84-3.56s-.66-2.57-1.96-3.29c-1.31-.72-3.34-1.42-6.08-2.12-2.5-.65-4.53-1.32-6.11-2-1.58-.67-2.93-1.68-4.05-3.01-1.13-1.33-1.69-3.08-1.69-5.25,0-1.72.51-3.29,1.54-4.73,1.02-1.43,2.48-2.57,4.36-3.41,1.88-.84,4.03-1.26,6.45-1.26,3.72,0,6.73.94,9.03,2.82,2.29,1.88,3.52,4.46,3.68,7.74h-5.59c-.12-1.76-.83-3.17-2.12-4.24s-3.02-1.6-5.19-1.6c-2.01,0-3.6.43-4.79,1.29-1.19.86-1.78,1.99-1.78,3.38,0,1.11.36,2.02,1.07,2.73.72.72,1.62,1.29,2.7,1.72,1.08.43,2.59.91,4.51,1.44,2.42.66,4.38,1.3,5.9,1.93,1.51.64,2.81,1.59,3.9,2.86,1.08,1.27,1.65,2.93,1.69,4.97,0,1.84-.51,3.5-1.54,4.97-1.02,1.47-2.47,2.63-4.33,3.47-1.86.84-4,1.26-6.42,1.26-2.58,0-4.89-.44-6.94-1.32Z"/>
      </g>
      <g>
        <path d="M410.69,86.54c3.9-3.43,9.19-5.14,15.88-5.14,4.44,0,8.23.77,11.4,2.31,3.16,1.54,5.56,3.64,7.18,6.3,1.63,2.66,2.44,5.65,2.44,8.96,0,3.9-.98,7.08-2.93,9.54-1.95,2.45-4.23,4.12-6.83,5.01v.35c3.37,1.12,6.03,2.99,7.98,5.59,1.95,2.6,2.93,5.94,2.93,10.02,0,3.67-.84,6.9-2.53,9.71-1.69,2.81-4.14,5.01-7.36,6.61-3.22,1.6-7.05,2.4-11.49,2.4-7.1,0-12.76-1.74-16.99-5.23-4.23-3.49-6.46-8.75-6.7-15.79h14.72c.06,2.6.8,4.66,2.22,6.16,1.42,1.51,3.49,2.26,6.21,2.26,2.31,0,4.09-.67,5.37-2,1.27-1.33,1.91-3.09,1.91-5.28,0-2.84-.9-4.89-2.71-6.16-1.8-1.27-4.69-1.91-8.65-1.91h-2.84v-12.33h2.84c3.02,0,5.46-.52,7.32-1.55,1.86-1.03,2.79-2.88,2.79-5.54,0-2.13-.59-3.78-1.77-4.97-1.18-1.18-2.81-1.77-4.88-1.77-2.25,0-3.92.68-5.01,2.04-1.09,1.36-1.73,3.05-1.91,5.06h-14.81c.24-6.33,2.31-11.21,6.21-14.64Z"/>
        <path d="M463.52,90.36c3.93-5.85,10.27-8.78,19.03-8.78s15.09,2.93,19.03,8.78c3.93,5.85,5.9,13.87,5.9,24.04s-1.97,18.36-5.9,24.21c-3.93,5.85-10.28,8.78-19.03,8.78s-15.09-2.93-19.03-8.78c-3.93-5.85-5.9-13.93-5.9-24.21s1.96-18.18,5.9-24.04ZM490.61,100.6c-1.3-3.22-3.99-4.83-8.07-4.83s-6.77,1.61-8.07,4.83c-1.3,3.22-1.95,7.82-1.95,13.79,0,4.02.24,7.35.71,9.98.47,2.63,1.43,4.76,2.88,6.39,1.45,1.63,3.59,2.44,6.43,2.44s4.98-.81,6.43-2.44c1.45-1.63,2.41-3.75,2.88-6.39.47-2.63.71-5.96.71-9.98,0-5.97-.65-10.57-1.95-13.79Z"/>
        <path d="M547.2,147.66l-15.08-20.76v20.76h-15.17v-65.64h15.17v36.28l14.99-20.13h18.72l-20.58,24.84,20.76,24.66h-18.8Z"/>
        <path d="M616.74,123.44h-15.43v15.79h-14.37v-15.79h-15.43v-13.57h15.43v-15.88h14.37v15.88h15.43v13.57Z"/>
      </g>
    </g>
    <g>
      <path class="cls-3" d="M338.4,172.88l-17.24,17.24-17.24-17.24h-28.01c-2.38,0-4.3-1.93-4.31-4.31v-4.31h-32.32v8.62c0,4.76,3.86,8.62,8.62,8.62h36.74c-4.25,4.73-6.59,10.88-6.57,17.24v8.62h86.18v-8.62c0-14.28-11.58-25.86-25.86-25.86Z"/>
      <path class="cls-3" d="M321.16,138.4c8.82.17,17.59-1.33,25.86-4.42,1.49-.6,2.93-1.3,4.31-2.11v-17.71l-30.16,11.31-30.16-11.31-4.31-1.62,34.47-12.93,15.08,5.67v-12.13c0-2.38-1.93-4.3-4.31-4.31h-77.57c-2.38,0-4.3,1.93-4.31,4.31v62.48h46.71c-.97-2.77-1.47-5.68-1.47-8.62v-13.04c8.26,3.09,17.04,4.59,25.86,4.42Z"/>
      <rect class="cls-2" x="282.38" y="162.1" width="10.77" height="4.31"/>
      <rect class="cls-2" x="250.06" y="170.72" width="4.31" height="4.31"/>
      <rect class="cls-2" x="258.68" y="170.72" width="4.31" height="4.31"/>
      <path class="cls-5" d="M338.4,170.72h-2.37c8.17-5.11,13.13-14.06,13.14-23.7v-11.63c1.11-.49,2.2-1.04,3.25-1.65.66-.39,1.06-1.1,1.06-1.86v-16.22l2.55-.95h1.76v15.48c-3.35,1.17-5.12,4.85-3.95,8.2.59,1.68,1.85,3.05,3.49,3.77l-3.78,15.12c-.29,1.15.41,2.32,1.57,2.61.17.04.35.06.52.06h8.62c1.19,0,2.15-.96,2.15-2.15,0-.18-.02-.35-.06-.52l-3.78-15.12c3.25-1.43,4.73-5.23,3.3-8.48-.72-1.63-2.08-2.9-3.77-3.49v-17.63c0-1.19-.96-2.15-2.15-2.15h-3.92l-11.17-4.19v-15.2c0-5.95-4.83-10.77-10.77-10.77h-81.87c-5.95,0-10.77,4.83-10.77,10.77v71.1h-2.15c-1.19,0-2.15.96-2.15,2.15v8.62c0,5.95,4.83,10.77,10.77,10.77h32.45c-2.9,4.5-4.44,9.73-4.44,15.08v8.62c0,1.19.96,2.15,2.15,2.15h86.18c1.19,0,2.15-.96,2.15-2.15v-8.62c-.02-15.46-12.55-27.99-28.01-28.01ZM333.2,175.03l-12.04,12.04-12.04-12.04h24.07ZM321.16,170.72c-13.08-.02-23.69-10.62-23.7-23.7v-9.94c7.67,2.4,15.67,3.57,23.7,3.48,8.03.1,16.03-1.07,23.7-3.48v9.94c-.02,13.08-10.62,23.69-23.7,23.7ZM334.09,102.17l-12.17-4.57c-.49-.18-1.02-.18-1.51,0l-34.47,12.93c-1.11.42-1.68,1.66-1.27,2.77.22.59.68,1.05,1.27,1.27l2.9,1.09v16.22c0,.76.4,1.47,1.06,1.86,1.05.61,2.14,1.16,3.25,1.66v11.63c0,2.18.27,4.35.78,6.46h-41.72v-60.33c0-1.19.96-2.15,2.15-2.15h77.57c1.19,0,2.15.96,2.15,2.15v9.01ZM349.17,130.61c-.97.51-1.96.97-2.98,1.38-8,2.99-16.49,4.43-25.03,4.26-8.54.17-17.04-1.27-25.04-4.26-1.01-.41-2-.87-2.96-1.37v-13.34l27.25,10.22c.49.18,1.02.18,1.51,0l27.26-10.22v13.33ZM359.94,134.09c1.19,0,2.15.96,2.15,2.15s-.96,2.15-2.15,2.15-2.15-.96-2.15-2.15.96-2.15,2.15-2.15ZM358.39,155.64l1.55-6.2,1.55,6.2h-3.1ZM343.74,114.7l-22.58,8.47-28.34-10.63,28.34-10.63,22.59,8.47h-22.59v4.31h22.58ZM245.75,91c0-3.57,2.89-6.46,6.46-6.46h81.87c3.57,0,6.46,2.89,6.46,6.46v13.59l-2.15-.81v-10.63c0-3.57-2.89-6.46-6.46-6.46h-77.57c-3.57,0-6.46,2.89-6.46,6.46v62.48c0,1.19.96,2.15,2.15,2.15h45.25c2.25,5.34,6.08,9.85,10.99,12.93h-30.38c-1.19,0-2.15-.96-2.15-2.15v-4.31c0-1.19-.96-2.15-2.15-2.15h-25.86v-71.1ZM247.9,179.34c-3.57,0-6.46-2.89-6.46-6.46v-6.46h28.01v2.15c0,3.57,2.89,6.46,6.46,6.46h13.14c-1.94,1.22-3.72,2.66-5.31,4.31h-35.85ZM362.1,205.19h-81.87v-6.46c.02-12.75,10.11-23.2,22.85-23.66l12.88,12.88h-27.12v4.31h64.64v-4.31h-27.12l12.88-12.88c12.74.46,22.83,10.91,22.85,23.66v6.46Z"/>
    </g>
  </g>
</svg>