<?xml version="1.0" encoding="UTF-8"?>
<svg id="Layer_1" data-name="Layer 1" xmlns="http://www.w3.org/2000/svg" viewBox="0 0 1845.75 1360.89">
  <defs>
    <style>
      .cls-1 {
        fill: #383838;
      }

      .cls-2 {
        fill: #f8b4b6;
      }

      .cls-3 {
        fill: #fdeced;
      }

      .cls-4 {
        fill: #f2696d;
      }

      .cls-5 {
        fill: #ec1c24;
      }
    </style>
  </defs>
  <path class="cls-4" d="M1610.92,1253.3H234.82c-98.4,0-178.45-80.05-178.45-178.45V286.04c0-98.4,80.05-178.45,178.45-178.45h1376.1c98.4,0,178.45,80.05,178.45,178.45v788.81c0,98.4-80.05,178.45-178.45,178.45ZM234.82,118.93c-92.15,0-167.11,74.97-167.11,167.11v788.81c0,92.14,74.96,167.11,167.11,167.11h1376.1c92.15,0,167.11-74.97,167.11-167.11V286.04c0-92.14-74.96-167.11-167.11-167.11H234.82Z"/>
  <g>
    <g>
      <path class="cls-1" d="M572.59,965.82c3.04,2.41,5.45,5.4,7.24,8.98,1.78,3.57,2.68,7.38,2.68,11.44,0,5.12-1.3,9.72-3.91,13.83-2.61,4.11-6.4,7.34-11.37,9.7-4.97,2.37-10.84,3.55-17.59,3.55h-37.65v-100.93h36.2c6.85,0,12.69,1.13,17.52,3.4,4.83,2.27,8.45,5.33,10.86,9.19,2.41,3.87,3.62,8.21,3.62,13.04,0,5.99-1.62,10.93-4.85,14.84-3.24,3.91-7.51,6.73-12.82,8.47,3.67.58,7.02,2.08,10.07,4.49ZM525.16,955.97h22.16c6.18,0,10.95-1.45,14.34-4.35,3.38-2.89,5.07-6.9,5.07-12.02s-1.69-9.12-5.07-12.02c-3.38-2.9-8.25-4.35-14.63-4.35h-21.87v32.73ZM563.83,997.82c3.67-3.09,5.5-7.39,5.5-12.89s-1.93-10.01-5.79-13.25c-3.86-3.23-9.03-4.85-15.5-4.85h-22.88v35.62h23.31c6.57,0,11.68-1.54,15.35-4.63Z"/>
      <path class="cls-1" d="M669.1,933.96l-47.79,116.72h-13.61l15.64-38.23-32-78.49h14.63l24.91,64.29,24.62-64.29h13.61Z"/>
      <path class="cls-1" d="M735.07,1010.78c-5.26-2.37-9.39-5.65-12.38-9.85-2.99-4.2-4.54-9.05-4.63-14.55h14.05c.48,4.73,2.44,8.71,5.86,11.95,3.43,3.23,8.42,4.85,14.99,4.85s11.22-1.57,14.84-4.71c3.62-3.13,5.43-7.17,5.43-12.09,0-3.86-1.06-7-3.19-9.41-2.12-2.41-4.78-4.25-7.96-5.5-3.19-1.25-7.48-2.61-12.89-4.05-6.66-1.74-12-3.47-16-5.21-4.01-1.74-7.43-4.46-10.28-8.18-2.85-3.72-4.27-8.71-4.27-14.99,0-5.5,1.4-10.38,4.2-14.63,2.8-4.25,6.73-7.53,11.8-9.85,5.07-2.31,10.88-3.47,17.45-3.47,9.46,0,17.21,2.37,23.24,7.1,6.03,4.73,9.43,11,10.21,18.82h-14.48c-.48-3.86-2.51-7.26-6.08-10.21-3.57-2.95-8.3-4.42-14.19-4.42-5.5,0-9.99,1.43-13.47,4.27-3.48,2.85-5.21,6.83-5.21,11.95,0,3.67,1.04,6.66,3.11,8.98,2.07,2.32,4.63,4.08,7.67,5.29,3.04,1.21,7.31,2.58,12.82,4.13,6.66,1.83,12.02,3.64,16.07,5.43,4.06,1.79,7.53,4.54,10.43,8.25,2.9,3.72,4.35,8.76,4.35,15.13,0,4.92-1.3,9.56-3.91,13.9-2.61,4.34-6.47,7.87-11.58,10.57-5.12,2.71-11.15,4.06-18.1,4.06s-12.62-1.18-17.88-3.55Z"/>
      <path class="cls-1" d="M822.02,944.82v46.77c0,3.86.82,6.59,2.46,8.18,1.64,1.59,4.49,2.39,8.54,2.39h9.7v11.15h-11.87c-7.34,0-12.84-1.69-16.51-5.07-3.67-3.38-5.5-8.93-5.5-16.65v-46.77h-10.28v-10.86h10.28v-19.99h13.18v19.99h20.71v10.86h-20.71Z"/>
      <path class="cls-1" d="M929.04,933.96v79.36h-13.18v-11.73c-2.51,4.05-6.01,7.22-10.5,9.48-4.49,2.27-9.44,3.4-14.84,3.4-6.18,0-11.73-1.28-16.65-3.84-4.92-2.55-8.81-6.39-11.66-11.51-2.85-5.12-4.27-11.34-4.27-18.68v-46.48h13.03v44.75c0,7.82,1.98,13.83,5.94,18.03,3.96,4.2,9.36,6.3,16.22,6.3s12.6-2.17,16.65-6.52c4.06-4.35,6.08-10.67,6.08-18.97v-43.59h13.18Z"/>
      <path class="cls-1" d="M951.34,951.98c3.28-6.13,7.79-10.88,13.54-14.26,5.74-3.38,12.19-5.06,19.33-5.06,6.18,0,11.92,1.42,17.23,4.27,5.31,2.85,9.36,6.59,12.16,11.22v-42h13.32v107.16h-13.32v-14.91c-2.61,4.73-6.47,8.62-11.58,11.65-5.12,3.04-11.1,4.56-17.96,4.56s-13.44-1.74-19.19-5.21c-5.74-3.48-10.26-8.35-13.54-14.63-3.28-6.28-4.92-13.42-4.92-21.43s1.64-15.23,4.92-21.36ZM1009.99,957.85c-2.41-4.44-5.67-7.84-9.78-10.21-4.1-2.37-8.62-3.55-13.54-3.55s-9.41,1.16-13.47,3.48c-4.06,2.32-7.29,5.7-9.7,10.14-2.41,4.44-3.62,9.65-3.62,15.64s1.21,11.37,3.62,15.86c2.41,4.49,5.65,7.91,9.7,10.28,4.05,2.37,8.54,3.55,13.47,3.55s9.44-1.18,13.54-3.55,7.36-5.79,9.78-10.28c2.41-4.49,3.62-9.73,3.62-15.71s-1.21-11.2-3.62-15.64Z"/>
      <path class="cls-1" d="M1121.21,978.56h-63.43c.48,7.82,3.16,13.92,8.04,18.32,4.87,4.39,10.79,6.59,17.74,6.59,5.69,0,10.45-1.33,14.26-3.98,3.81-2.65,6.49-6.2,8.04-10.64h14.19c-2.12,7.63-6.37,13.83-12.74,18.61-6.37,4.78-14.29,7.17-23.75,7.17-7.53,0-14.26-1.69-20.2-5.07-5.94-3.38-10.6-8.18-13.97-14.41-3.38-6.23-5.07-13.44-5.07-21.65s1.64-15.4,4.92-21.58c3.28-6.18,7.89-10.93,13.83-14.26,5.94-3.33,12.77-4.99,20.49-4.99s14.19,1.64,19.98,4.92c5.79,3.29,10.26,7.8,13.4,13.54,3.14,5.74,4.71,12.24,4.71,19.48,0,2.51-.14,5.16-.43,7.97ZM1104.7,954.88c-2.22-3.62-5.24-6.37-9.05-8.25-3.82-1.88-8.04-2.82-12.67-2.82-6.66,0-12.33,2.13-17.02,6.37-4.68,4.25-7.36,10.14-8.04,17.67h50.1c0-5.02-1.11-9.34-3.33-12.96Z"/>
      <path class="cls-1" d="M1201.14,941.27c5.98,5.84,8.98,14.26,8.98,25.27v46.77h-13.03v-44.89c0-7.91-1.98-13.98-5.94-18.17-3.96-4.2-9.36-6.3-16.22-6.3s-12.48,2.17-16.58,6.52c-4.11,4.35-6.16,10.67-6.16,18.97v43.88h-13.18v-79.36h13.18v11.29c2.61-4.05,6.16-7.19,10.64-9.41,4.49-2.22,9.43-3.33,14.84-3.33,9.65,0,17.47,2.92,23.46,8.76Z"/>
      <path class="cls-1" d="M1247.77,944.82v46.77c0,3.86.82,6.59,2.46,8.18,1.64,1.59,4.49,2.39,8.54,2.39h9.7v11.15h-11.87c-7.34,0-12.84-1.69-16.51-5.07-3.67-3.38-5.5-8.93-5.5-16.65v-46.77h-10.28v-10.86h10.28v-19.99h13.18v19.99h20.71v10.86h-20.71Z"/>
      <path class="cls-1" d="M1296.14,1011.5c-4.83-2.07-8.64-4.97-11.44-8.69-2.8-3.71-4.35-7.99-4.63-12.82h13.61c.38,3.96,2.24,7.2,5.58,9.71,3.33,2.51,7.7,3.77,13.11,3.77,5.02,0,8.98-1.11,11.87-3.33,2.9-2.22,4.34-5.02,4.34-8.4s-1.54-6.06-4.63-7.75c-3.09-1.69-7.87-3.36-14.34-5-5.89-1.54-10.69-3.11-14.41-4.71-3.72-1.59-6.9-3.96-9.56-7.1-2.66-3.13-3.98-7.26-3.98-12.38,0-4.05,1.21-7.77,3.62-11.15,2.41-3.38,5.84-6.06,10.28-8.04,4.44-1.98,9.51-2.97,15.21-2.97,8.78,0,15.88,2.22,21.29,6.66,5.41,4.44,8.3,10.52,8.69,18.25h-13.18c-.29-4.15-1.95-7.48-4.99-9.99-3.04-2.51-7.12-3.77-12.24-3.77-4.73,0-8.5,1.02-11.29,3.04-2.8,2.03-4.2,4.68-4.2,7.96,0,2.61.84,4.76,2.53,6.45,1.69,1.69,3.81,3.04,6.37,4.05,2.56,1.02,6.1,2.15,10.64,3.4,5.69,1.55,10.33,3.07,13.9,4.56,3.57,1.5,6.64,3.74,9.19,6.73,2.56,2.99,3.89,6.9,3.98,11.73,0,4.35-1.21,8.25-3.62,11.73-2.41,3.47-5.82,6.2-10.21,8.18-4.39,1.98-9.44,2.97-15.13,2.97-6.08,0-11.54-1.04-16.36-3.11Z"/>
    </g>
    <g>
      <path d="M398.88,765.03v-28.86l66.1-94.55h39.95v92.45h17.15v30.96h-17.15v27.19h-35.77v-27.19h-70.28ZM471.68,680.94l-35.14,53.13h35.14v-53.13Z"/>
      <path d="M544.57,788.36c-3.98-3.7-5.96-8.26-5.96-13.7s1.99-10.25,5.96-14.01c3.97-3.77,9.1-5.65,15.37-5.65s11.19,1.88,15.17,5.65c3.97,3.77,5.96,8.44,5.96,14.01s-1.99,10.01-5.96,13.7c-3.97,3.7-9.03,5.54-15.17,5.54s-11.4-1.85-15.37-5.54Z"/>
      <path d="M603.87,758.34c13.66-11.3,24.44-20.57,32.32-27.82,7.88-7.25,14.54-14.85,19.98-22.8,5.44-7.95,8.16-15.69,8.16-23.22,0-5.71-1.33-10.18-3.97-13.39-2.65-3.2-6.62-4.81-11.92-4.81s-9.45,1.99-12.44,5.96c-3,3.97-4.5,9.59-4.5,16.84h-34.51c.28-11.85,2.82-21.75,7.63-29.7,4.81-7.95,11.16-13.81,19.04-17.57,7.88-3.77,16.63-5.65,26.25-5.65,16.59,0,29.11,4.25,37.55,12.76,8.44,8.51,12.65,19.6,12.65,33.26,0,14.93-5.09,28.76-15.27,41.52-10.18,12.76-23.15,25.21-38.91,37.34h56.48v29.08h-105.01v-26.57c4.74-3.77,6.9-5.5,6.48-5.23Z"/>
      <path d="M840.86,792.22l-30.54-55.43h-8.58v55.43h-35.77v-146.84h60.03c11.57,0,21.44,2.02,29.6,6.07,8.16,4.05,14.26,9.59,18.3,16.63,4.04,7.04,6.07,14.88,6.07,23.53,0,9.76-2.76,18.48-8.26,26.15-5.51,7.67-13.63,13.11-24.37,16.31l33.89,58.15h-40.37ZM801.75,711.48h22.17c6.55,0,11.47-1.6,14.75-4.81,3.27-3.21,4.92-7.74,4.92-13.6s-1.64-9.97-4.92-13.18c-3.28-3.21-8.19-4.81-14.75-4.81h-22.17v36.4Z"/>
      <path d="M902.04,702.07c4.53-9.06,10.7-16.03,18.51-20.92,7.81-4.88,16.53-7.32,26.15-7.32,8.23,0,15.44,1.67,21.65,5.02,6.2,3.34,10.98,7.74,14.33,13.18v-16.52h35.77v116.72h-35.77v-16.52c-3.49,5.44-8.33,9.83-14.54,13.18-6.21,3.35-13.42,5.02-21.65,5.02-9.48,0-18.13-2.47-25.94-7.42-7.81-4.95-13.98-11.99-18.51-21.13-4.53-9.13-6.8-19.69-6.8-31.69s2.26-22.52,6.8-31.59ZM975.26,712.74c-4.95-5.16-10.98-7.74-18.09-7.74s-13.15,2.55-18.09,7.63c-4.95,5.09-7.43,12.1-7.43,21.02s2.48,16,7.43,21.23c4.95,5.23,10.98,7.84,18.09,7.84s13.14-2.58,18.09-7.74c4.95-5.16,7.43-12.2,7.43-21.13s-2.48-15.96-7.43-21.12Z"/>
      <path d="M1109.44,761.89v30.33h-18.2c-12.97,0-23.08-3.17-30.33-9.52-7.25-6.35-10.88-16.7-10.88-31.06v-46.44h-14.22v-29.7h14.22v-28.45h35.77v28.45h23.43v29.7h-23.43v46.85c0,3.49.84,6,2.51,7.53,1.67,1.54,4.46,2.3,8.37,2.3h12.76Z"/>
      <path d="M1131.92,657.83c-3.98-3.69-5.96-8.26-5.96-13.7s1.99-10.21,5.96-13.91c3.97-3.7,9.1-5.54,15.37-5.54s11.19,1.85,15.17,5.54c3.97,3.7,5.96,8.33,5.96,13.91s-1.99,10.01-5.96,13.7c-3.97,3.7-9.03,5.54-15.17,5.54s-11.4-1.85-15.37-5.54ZM1165.07,675.51v116.72h-35.77v-116.72h35.77Z"/>
      <path d="M1294.87,687.53c8.16,8.86,12.24,21.02,12.24,36.5v68.19h-35.56v-63.38c0-7.81-2.02-13.88-6.07-18.2-4.05-4.32-9.49-6.48-16.32-6.48s-12.27,2.16-16.32,6.48c-4.05,4.32-6.07,10.39-6.07,18.2v63.38h-35.77v-116.72h35.77v15.48c3.63-5.16,8.5-9.24,14.64-12.24,6.13-3,13.04-4.5,20.71-4.5,13.66,0,24.58,4.43,32.74,13.28Z"/>
      <path d="M1397.99,678.85c6.2,3.34,10.98,7.74,14.33,13.18v-16.52h35.77v116.51c0,10.74-2.13,20.46-6.38,29.18-4.26,8.71-10.74,15.65-19.45,20.81-8.72,5.16-19.56,7.74-32.53,7.74-17.29,0-31.31-4.08-42.04-12.24-10.74-8.16-16.87-19.21-18.41-33.15h35.35c1.11,4.46,3.77,7.98,7.95,10.57,4.18,2.58,9.34,3.87,15.48,3.87,7.39,0,13.28-2.13,17.68-6.38,4.39-4.26,6.59-11.05,6.59-20.4v-16.52c-3.49,5.44-8.3,9.87-14.43,13.28-6.14,3.42-13.32,5.12-21.55,5.12-9.62,0-18.34-2.47-26.15-7.42-7.81-4.95-13.98-11.99-18.51-21.13-4.53-9.13-6.8-19.69-6.8-31.69s2.26-22.52,6.8-31.59c4.53-9.06,10.7-16.03,18.51-20.92,7.81-4.88,16.53-7.32,26.15-7.32,8.23,0,15.44,1.67,21.65,5.02ZM1404.89,712.74c-4.95-5.16-10.98-7.74-18.09-7.74s-13.15,2.55-18.09,7.63c-4.95,5.09-7.43,12.1-7.43,21.02s2.48,16,7.43,21.23c4.95,5.23,10.98,7.84,18.09,7.84s13.14-2.58,18.09-7.74c4.95-5.16,7.43-12.2,7.43-21.13s-2.48-15.96-7.43-21.12Z"/>
    </g>
    <g>
      <g>
        <path class="cls-2" d="M1013.18,425.36l4.81,32.6-29.48-14.62-32.73,16.24-30.8,15.22-63.53-31.52-29.48,14.62,4.81-32.6-23.04-23.52,32.48-5.47,14.62-27.91,26.59,13.23-3.67,24.84,2.89,4.81,38.32-19.01,42.23,20.93-4.63-31.58,26.59-13.23,14.62,27.91,32.48,5.47-23.1,23.58Z"/>
        <path class="cls-3" d="M800.58,332.42l-24.9-25.45,35.13-5.96,16.48-31.52,16.48,31.52,66.05,11.19,15.16-28.94,15.1,28.94,66.11-11.19,16.48-31.52,16.48,31.52,35.13,5.96-24.9,25.45,5.17,35.25-31.88-15.82-60.1,29.84,4.63,31.58-42.23-20.99-42.23,20.93,4.63-31.58-60.1-29.84-31.88,15.82,5.17-35.19ZM1055.53,495.8h-63.53l-67.01-67.01v67.01h-130.54c-9.75,0-17.63,7.88-17.63,17.63v34.71c0,9.75,7.88,17.63,17.63,17.63h261.08c9.75,0,17.63-7.88,17.63-17.63v-34.71c0-9.75-7.88-17.63-17.63-17.63Z"/>
      </g>
      <path class="cls-5" d="M1001.08,530.75c0,2.59-2.11,4.69-4.69,4.69h-187.27c-2.59,0-4.69-2.11-4.69-4.69s2.11-4.69,4.69-4.69h187.27c2.59,0,4.69,2.11,4.69,4.69ZM1040.85,526.06c-2.59,0-4.69,2.11-4.69,4.69s2.11,4.69,4.69,4.69,4.69-2.11,4.69-4.69-2.11-4.69-4.69-4.69ZM1077.84,513.43v34.71c0,12.27-9.99,22.32-22.32,22.32h-261.08c-12.27,0-22.32-9.99-22.32-22.32v-34.71c0-12.27,9.99-22.32,22.32-22.32h125.85v-13.35l-58.83-29.18-27.43,13.6c-1.56.78-3.43.6-4.87-.42-1.44-1.02-2.17-2.77-1.86-4.51l4.45-30.26-21.42-21.84c-1.2-1.26-1.68-3.07-1.14-4.75.54-1.68,1.99-2.89,3.67-3.19l30.14-5.11,11.31-21.6-27.13-13.48-29.78,14.8c-1.56.78-3.43.6-4.87-.42-1.44-1.02-2.17-2.77-1.86-4.51l4.87-32.91-23.22-23.76c-1.2-1.26-1.68-3.07-1.14-4.75.54-1.68,1.99-2.89,3.67-3.19l32.85-5.53,15.4-29.48c.84-1.56,2.41-2.53,4.15-2.53s3.37.96,4.15,2.53l15.4,29.48,60.4,10.23,13.54-25.87c.84-1.56,2.41-2.53,4.15-2.53s3.37.96,4.15,2.53l13.54,25.87,60.4-10.23,15.4-29.48c.84-1.56,2.41-2.53,4.15-2.53s3.37.96,4.15,2.53l15.4,29.48,32.79,5.53c1.74.3,3.13,1.5,3.67,3.19.54,1.68.12,3.49-1.14,4.75l-23.28,23.76,4.87,32.91c.24,1.74-.48,3.49-1.86,4.51-1.44,1.02-3.31,1.2-4.87.42l-29.78-14.8-27.13,13.48,11.31,21.6,30.14,5.11c1.74.3,3.13,1.5,3.67,3.19.54,1.68.12,3.49-1.14,4.75l-21.05,21.84,4.45,30.26c.24,1.74-.48,3.49-1.86,4.51-1.44,1.02-3.31,1.2-4.87.42l-27.43-13.6-24.78,12.27,30.26,30.26h61.54c12.33,0,22.32,9.99,22.32,22.32h0ZM947.3,315.75l2.65,5.05,44.15,7.46c1.74.3,3.13,1.5,3.67,3.19.54,1.68.12,3.49-1.14,4.75l-31.34,32,.9,6.32,54.32-26.95c1.32-.66,2.89-.66,4.21,0l23.82,11.79-3.85-26.29c-.24-1.44.24-2.95,1.32-3.97l18.59-19.01-26.23-4.45c-1.44-.24-2.71-1.14-3.37-2.47l-12.33-23.58-12.33,23.58c-.66,1.32-1.93,2.23-3.37,2.47l-59.68,10.11ZM907.3,327.24c-.66,1.32-1.93,2.23-3.37,2.47l-37.6,6.38,26.65,27.25c1.02,1.02,1.5,2.53,1.32,3.97l-5.53,37.72,34.17-16.96c.66-.3,1.38-.48,2.11-.48s1.44.18,2.11.48l34.17,16.96-5.53-37.72c-.24-1.44.24-2.95,1.32-3.97l26.65-27.25-37.72-6.38c-1.44-.24-2.71-1.14-3.37-2.47l-17.69-33.81-17.69,33.81ZM829.4,347.58l54.32,26.95.9-6.32-31.34-32c-1.2-1.26-1.68-3.07-1.14-4.75s1.99-2.89,3.67-3.19l44.15-7.46,2.65-5.05-59.68-10.11c-1.44-.24-2.71-1.14-3.37-2.47l-12.27-23.58-12.33,23.58c-.66,1.32-1.93,2.23-3.37,2.47l-26.23,4.45,18.59,19.01c1.02,1.02,1.5,2.53,1.32,3.97l-3.91,26.29,23.82-11.79c1.32-.66,2.89-.66,4.21,0h0ZM920.29,467.23v-38.44c0-1.93,1.14-3.61,2.89-4.33,1.74-.72,3.79-.3,5.11,1.02l28.39,28.39,29.72-14.74c1.32-.66,2.89-.66,4.21,0l21.42,10.65-3.49-23.64c-.24-1.44.24-2.95,1.32-3.97l16.72-17.08-23.58-3.97c-1.44-.24-2.71-1.14-3.37-2.47l-12.45-23.82-19.43,9.63,4.15,28.21c.24,1.74-.48,3.49-1.86,4.51-.84.6-1.8.9-2.77.9-.72,0-1.44-.18-2.11-.48l-40.18-20.03-40.12,19.91c-1.56.78-3.43.6-4.87-.42-1.44-1.02-2.17-2.77-1.86-4.51l4.15-28.21-19.43-9.63-12.45,23.82c-.66,1.32-1.93,2.23-3.37,2.47l-23.58,3.97,16.72,17.08c1.02,1.02,1.5,2.53,1.32,3.97l-3.49,23.64,21.42-10.65c1.32-.66,2.89-.66,4.21,0l56.67,28.21ZM1068.4,513.43c0-7.1-5.78-12.87-12.87-12.87h-63.53c-1.26,0-2.47-.48-3.31-1.38l-58.95-58.95v55.64c0,2.59-2.11,4.69-4.69,4.69h-130.6c-7.1,0-12.87,5.78-12.87,12.87v34.71c0,7.1,5.78,12.87,12.87,12.87h261.08c7.1,0,12.87-5.78,12.87-12.87v-34.71Z"/>
    </g>
  </g>
</svg>