<?xml version="1.0" encoding="UTF-8"?>
<svg id="Layer_1" data-name="Layer 1" xmlns="http://www.w3.org/2000/svg" viewBox="0 0 908.08 338.34">
  <defs>
    <style>
      .cls-1 {
        fill: #383838;
      }

      .cls-2 {
        fill: #f8b4b6;
      }

      .cls-3 {
        fill: #fdeced;
      }

      .cls-4 {
        fill: #f2696d;
      }

      .cls-5 {
        fill: #ec1c24;
      }
    </style>
  </defs>
  <path class="cls-4" d="M855.11,300.31H52.97c-22.34,0-40.52-18.18-40.52-40.52V78.55c0-22.34,18.18-40.52,40.52-40.52h802.13c22.34,0,40.52,18.18,40.52,40.52v181.23c0,22.34-18.18,40.52-40.52,40.52ZM52.97,41.03c-20.69,0-37.52,16.83-37.52,37.52v181.23c0,20.69,16.83,37.52,37.52,37.52h802.13c20.69,0,37.52-16.83,37.52-37.52V78.55c0-20.69-16.83-37.52-37.52-37.52H52.97Z"/>
  <g>
    <g>
      <g>
        <path class="cls-1" d="M338.68,215.13c1.29,1.02,2.31,2.29,3.07,3.81.76,1.51,1.14,3.13,1.14,4.85,0,2.17-.55,4.12-1.66,5.86-1.11,1.74-2.71,3.11-4.82,4.11-2.11,1-4.6,1.5-7.46,1.5h-15.97v-42.8h15.35c2.91,0,5.38.48,7.43,1.44,2.05.96,3.58,2.26,4.61,3.9,1.02,1.64,1.54,3.48,1.54,5.53,0,2.54-.69,4.64-2.06,6.29-1.37,1.66-3.18,2.86-5.43,3.59,1.56.25,2.98.88,4.27,1.9ZM318.57,210.95h9.4c2.62,0,4.65-.61,6.08-1.84,1.43-1.23,2.15-2.93,2.15-5.1s-.72-3.87-2.15-5.1c-1.43-1.23-3.5-1.84-6.2-1.84h-9.27v13.88ZM334.96,228.7c1.56-1.31,2.33-3.13,2.33-5.47s-.82-4.25-2.46-5.62c-1.64-1.37-3.83-2.06-6.57-2.06h-9.7v15.11h9.89c2.78,0,4.95-.65,6.51-1.96Z"/>
        <path class="cls-1" d="M379.61,201.62l-20.26,49.49h-5.77l6.63-16.21-13.57-33.28h6.2l10.56,27.26,10.44-27.26h5.77Z"/>
        <path class="cls-1" d="M407.58,234.2c-2.23-1-3.98-2.4-5.25-4.18-1.27-1.78-1.92-3.84-1.97-6.17h5.96c.2,2.01,1.03,3.7,2.49,5.07,1.45,1.37,3.57,2.06,6.36,2.06s4.76-.67,6.29-2,2.3-3.04,2.3-5.13c0-1.64-.45-2.97-1.35-3.99-.9-1.02-2.03-1.8-3.38-2.33-1.35-.53-3.17-1.11-5.47-1.72-2.82-.74-5.09-1.47-6.79-2.21-1.7-.74-3.15-1.89-4.36-3.47-1.21-1.58-1.81-3.69-1.81-6.36,0-2.33.59-4.4,1.78-6.2,1.19-1.8,2.86-3.19,5-4.18,2.15-.98,4.62-1.47,7.4-1.47,4.01,0,7.3,1,9.86,3.01,2.56,2.01,4,4.67,4.33,7.98h-6.14c-.21-1.64-1.07-3.08-2.58-4.33-1.52-1.25-3.52-1.87-6.02-1.87-2.33,0-4.24.6-5.71,1.81-1.47,1.21-2.21,2.9-2.21,5.07,0,1.56.44,2.83,1.32,3.81.88.98,1.97,1.73,3.25,2.24,1.29.51,3.1,1.1,5.43,1.75,2.82.78,5.1,1.55,6.82,2.3,1.72.76,3.19,1.92,4.42,3.5,1.23,1.58,1.84,3.72,1.84,6.42,0,2.09-.55,4.05-1.66,5.89-1.11,1.84-2.74,3.34-4.91,4.48-2.17,1.15-4.73,1.72-7.68,1.72s-5.35-.5-7.58-1.5Z"/>
        <path class="cls-1" d="M444.45,206.23v19.83c0,1.64.35,2.79,1.04,3.47.7.67,1.9,1.01,3.62,1.01h4.11v4.73h-5.04c-3.11,0-5.45-.72-7-2.15-1.56-1.43-2.33-3.79-2.33-7.06v-19.83h-4.36v-4.61h4.36v-8.47h5.59v8.47h8.78v4.61h-8.78Z"/>
        <path class="cls-1" d="M489.83,201.62v33.65h-5.59v-4.97c-1.06,1.72-2.55,3.06-4.45,4.02-1.9.96-4,1.44-6.29,1.44-2.62,0-4.97-.54-7.06-1.63s-3.74-2.71-4.94-4.88c-1.21-2.17-1.81-4.81-1.81-7.92v-19.71h5.53v18.97c0,3.32.84,5.87,2.52,7.65,1.68,1.78,3.97,2.67,6.88,2.67s5.34-.92,7.06-2.76c1.72-1.84,2.58-4.52,2.58-8.04v-18.48h5.59Z"/>
        <path class="cls-1" d="M499.29,209.27c1.39-2.6,3.31-4.62,5.74-6.05,2.44-1.43,5.17-2.15,8.2-2.15,2.62,0,5.06.6,7.31,1.81,2.25,1.21,3.97,2.79,5.16,4.76v-17.81h5.65v45.44h-5.65v-6.33c-1.11,2.01-2.74,3.65-4.91,4.94-2.17,1.29-4.71,1.93-7.61,1.93s-5.7-.74-8.14-2.21c-2.44-1.47-4.35-3.54-5.74-6.2-1.39-2.66-2.09-5.69-2.09-9.09s.7-6.46,2.09-9.06ZM524.16,211.75c-1.02-1.88-2.41-3.33-4.15-4.33-1.74-1-3.65-1.5-5.74-1.5s-3.99.49-5.71,1.47-3.09,2.42-4.11,4.3c-1.02,1.88-1.54,4.09-1.54,6.63s.51,4.82,1.54,6.72c1.02,1.9,2.4,3.36,4.11,4.36,1.72,1,3.62,1.5,5.71,1.5s4-.5,5.74-1.5c1.74-1,3.12-2.46,4.15-4.36,1.02-1.9,1.54-4.12,1.54-6.66s-.51-4.75-1.54-6.63Z"/>
        <path class="cls-1" d="M571.32,220.53h-26.9c.2,3.32,1.34,5.91,3.41,7.77,2.07,1.86,4.57,2.79,7.52,2.79,2.42,0,4.43-.56,6.05-1.69,1.62-1.13,2.75-2.63,3.41-4.51h6.02c-.9,3.23-2.7,5.86-5.4,7.89-2.7,2.03-6.06,3.04-10.07,3.04-3.19,0-6.05-.72-8.57-2.15-2.52-1.43-4.49-3.47-5.93-6.11-1.43-2.64-2.15-5.7-2.15-9.18s.7-6.53,2.09-9.15c1.39-2.62,3.35-4.64,5.86-6.05,2.52-1.41,5.41-2.12,8.69-2.12s6.02.7,8.47,2.09c2.46,1.39,4.35,3.31,5.68,5.74,1.33,2.44,2,5.19,2,8.26,0,1.07-.06,2.19-.18,3.38ZM564.32,210.49c-.94-1.54-2.22-2.7-3.84-3.5-1.62-.8-3.41-1.2-5.37-1.2-2.82,0-5.23.9-7.22,2.7-1.99,1.8-3.12,4.3-3.41,7.49h21.25c0-2.13-.47-3.96-1.41-5.5Z"/>
        <path class="cls-1" d="M605.22,204.72c2.54,2.48,3.81,6.05,3.81,10.71v19.83h-5.53v-19.04c0-3.36-.84-5.93-2.52-7.71-1.68-1.78-3.97-2.67-6.88-2.67s-5.29.92-7.03,2.76c-1.74,1.84-2.61,4.52-2.61,8.04v18.61h-5.59v-33.65h5.59v4.79c1.11-1.72,2.61-3.05,4.51-3.99,1.9-.94,4-1.41,6.29-1.41,4.09,0,7.41,1.24,9.95,3.72Z"/>
        <path class="cls-1" d="M624.99,206.23v19.83c0,1.64.35,2.79,1.04,3.47.7.67,1.9,1.01,3.62,1.01h4.11v4.73h-5.04c-3.11,0-5.45-.72-7-2.15-1.56-1.43-2.33-3.79-2.33-7.06v-19.83h-4.36v-4.61h4.36v-8.47h5.59v8.47h8.78v4.61h-8.78Z"/>
        <path class="cls-1" d="M645.5,234.5c-2.05-.88-3.66-2.11-4.85-3.68-1.19-1.58-1.84-3.39-1.96-5.43h5.77c.16,1.68.95,3.05,2.36,4.11,1.41,1.07,3.26,1.6,5.56,1.6,2.13,0,3.81-.47,5.04-1.41,1.23-.94,1.84-2.13,1.84-3.56s-.66-2.57-1.96-3.29c-1.31-.72-3.34-1.42-6.08-2.12-2.5-.65-4.53-1.32-6.11-2-1.58-.67-2.93-1.68-4.05-3.01-1.13-1.33-1.69-3.08-1.69-5.25,0-1.72.51-3.29,1.54-4.73,1.02-1.43,2.48-2.57,4.36-3.41,1.88-.84,4.03-1.26,6.45-1.26,3.72,0,6.73.94,9.03,2.83,2.29,1.88,3.52,4.46,3.68,7.74h-5.59c-.12-1.76-.83-3.17-2.12-4.24s-3.02-1.6-5.19-1.6c-2.01,0-3.6.43-4.79,1.29-1.19.86-1.78,1.99-1.78,3.38,0,1.11.36,2.02,1.07,2.73.72.72,1.62,1.29,2.7,1.72,1.08.43,2.59.91,4.51,1.44,2.42.66,4.38,1.3,5.9,1.93,1.51.64,2.81,1.59,3.9,2.86,1.08,1.27,1.65,2.93,1.69,4.97,0,1.84-.51,3.5-1.54,4.97-1.02,1.47-2.47,2.63-4.33,3.47-1.86.84-4,1.26-6.42,1.26-2.58,0-4.89-.44-6.94-1.32Z"/>
      </g>
      <g>
        <path d="M312.6,140.22v-12.24l28.03-40.09h16.94v39.21h7.27v13.13h-7.27v11.53h-15.17v-11.53h-29.8ZM343.47,104.56l-14.9,22.53h14.9v-22.53Z"/>
        <path d="M374.38,150.11c-1.69-1.57-2.53-3.5-2.53-5.81s.84-4.35,2.53-5.94c1.69-1.6,3.86-2.39,6.52-2.39s4.75.8,6.43,2.39c1.69,1.6,2.53,3.58,2.53,5.94s-.84,4.24-2.53,5.81c-1.69,1.57-3.83,2.35-6.43,2.35s-4.83-.78-6.52-2.35Z"/>
        <path d="M399.52,137.38c5.79-4.79,10.36-8.72,13.7-11.8,3.34-3.07,6.16-6.3,8.47-9.67,2.31-3.37,3.46-6.65,3.46-9.85,0-2.42-.56-4.32-1.69-5.68-1.12-1.36-2.81-2.04-5.06-2.04s-4.01.84-5.28,2.53c-1.27,1.69-1.91,4.07-1.91,7.14h-14.64c.12-5.03,1.2-9.23,3.24-12.6,2.04-3.37,4.73-5.85,8.07-7.45,3.34-1.6,7.05-2.39,11.13-2.39,7.04,0,12.34,1.8,15.92,5.41,3.58,3.61,5.37,8.31,5.37,14.1,0,6.33-2.16,12.2-6.48,17.61-4.32,5.41-9.82,10.69-16.5,15.83h23.95v12.33h-44.53v-11.27c2.01-1.6,2.93-2.33,2.75-2.22Z"/>
        <path d="M500.02,151.75l-12.95-23.51h-3.64v23.51h-15.17v-62.27h25.46c4.91,0,9.09.86,12.55,2.57,3.46,1.72,6.05,4.07,7.76,7.05,1.71,2.99,2.57,6.31,2.57,9.98,0,4.14-1.17,7.84-3.5,11.09-2.34,3.25-5.78,5.56-10.33,6.92l14.37,24.66h-17.12ZM483.43,117.51h9.4c2.78,0,4.86-.68,6.25-2.04,1.39-1.36,2.08-3.28,2.08-5.77s-.7-4.23-2.08-5.59c-1.39-1.36-3.47-2.04-6.25-2.04h-9.4v15.43Z"/>
        <path d="M525.96,113.52c1.92-3.84,4.54-6.8,7.85-8.87,3.31-2.07,7.01-3.1,11.09-3.1,3.49,0,6.55.71,9.18,2.13,2.63,1.42,4.66,3.28,6.08,5.59v-7.01h15.17v49.49h-15.17v-7.01c-1.48,2.31-3.53,4.17-6.16,5.59-2.63,1.42-5.69,2.13-9.18,2.13-4.02,0-7.69-1.05-11-3.15-3.31-2.1-5.93-5.08-7.85-8.96-1.92-3.87-2.88-8.35-2.88-13.44s.96-9.55,2.88-13.39ZM557.01,118.05c-2.1-2.19-4.66-3.28-7.67-3.28s-5.57,1.08-7.67,3.24c-2.1,2.16-3.15,5.13-3.15,8.91s1.05,6.79,3.15,9c2.1,2.22,4.66,3.33,7.67,3.33s5.57-1.09,7.67-3.28c2.1-2.19,3.15-5.17,3.15-8.96s-1.05-6.77-3.15-8.96Z"/>
        <path d="M613.91,138.89v12.86h-7.72c-5.5,0-9.79-1.34-12.86-4.04-3.08-2.69-4.61-7.08-4.61-13.17v-19.69h-6.03v-12.59h6.03v-12.06h15.17v12.06h9.93v12.59h-9.93v19.87c0,1.48.35,2.54,1.06,3.19.71.65,1.89.98,3.55.98h5.41Z"/>
        <path d="M623.44,94.76c-1.69-1.57-2.53-3.5-2.53-5.81s.84-4.33,2.53-5.9c1.69-1.57,3.86-2.35,6.52-2.35s4.75.79,6.43,2.35c1.69,1.57,2.53,3.53,2.53,5.9s-.84,4.24-2.53,5.81c-1.69,1.57-3.83,2.35-6.43,2.35s-4.83-.78-6.52-2.35ZM637.5,102.26v49.49h-15.17v-49.49h15.17Z"/>
        <path d="M692.54,107.36c3.46,3.76,5.19,8.92,5.19,15.48v28.92h-15.08v-26.88c0-3.31-.86-5.88-2.57-7.72-1.72-1.83-4.02-2.75-6.92-2.75s-5.2.92-6.92,2.75c-1.72,1.83-2.57,4.41-2.57,7.72v26.88h-15.17v-49.49h15.17v6.56c1.54-2.19,3.61-3.92,6.21-5.19,2.6-1.27,5.53-1.91,8.78-1.91,5.79,0,10.42,1.88,13.88,5.63Z"/>
        <path d="M736.27,103.68c2.63,1.42,4.66,3.28,6.08,5.59v-7.01h15.17v49.41c0,4.55-.9,8.68-2.71,12.37-1.8,3.69-4.55,6.64-8.25,8.83-3.7,2.19-8.29,3.28-13.79,3.28-7.33,0-13.28-1.73-17.83-5.19-4.55-3.46-7.16-8.15-7.81-14.06h14.99c.47,1.89,1.6,3.38,3.37,4.48,1.77,1.09,3.96,1.64,6.56,1.64,3.13,0,5.63-.9,7.5-2.71,1.86-1.8,2.79-4.69,2.79-8.65v-7.01c-1.48,2.31-3.52,4.18-6.12,5.63-2.6,1.45-5.65,2.17-9.14,2.17-4.08,0-7.78-1.05-11.09-3.15-3.31-2.1-5.93-5.08-7.85-8.96-1.92-3.87-2.88-8.35-2.88-13.44s.96-9.55,2.88-13.39c1.92-3.84,4.54-6.8,7.85-8.87,3.31-2.07,7.01-3.1,11.09-3.1,3.49,0,6.55.71,9.18,2.13ZM739.19,118.05c-2.1-2.19-4.66-3.28-7.67-3.28s-5.57,1.08-7.67,3.24c-2.1,2.16-3.15,5.13-3.15,8.91s1.05,6.79,3.15,9c2.1,2.22,4.66,3.33,7.67,3.33s5.57-1.09,7.67-3.28c2.1-2.19,3.15-5.17,3.15-8.96s-1.05-6.77-3.15-8.96Z"/>
      </g>
    </g>
    <g>
      <g>
        <path class="cls-2" d="M248.23,136.06l2.04,13.83-12.5-6.2-13.88,6.89-13.06,6.45-26.94-13.37-12.5,6.2,2.04-13.83-9.77-9.97,13.78-2.32,6.2-11.84,11.28,5.61-1.56,10.54,1.22,2.04,16.25-8.06,17.91,8.88-1.96-13.39,11.28-5.61,6.2,11.84,13.78,2.32-9.8,10Z"/>
        <path class="cls-3" d="M158.08,96.65l-10.56-10.79,14.9-2.53,6.99-13.37,6.99,13.37,28.01,4.74,6.43-12.27,6.4,12.27,28.03-4.74,6.99-13.37,6.99,13.37,14.9,2.53-10.56,10.79,2.19,14.95-13.52-6.71-25.48,12.65,1.96,13.39-17.91-8.9-17.91,8.88,1.96-13.39-25.48-12.65-13.52,6.71,2.19-14.92ZM266.19,165.93h-26.94l-28.42-28.42v28.42h-55.36c-4.13,0-7.47,3.34-7.47,7.47v14.72c0,4.13,3.34,7.47,7.47,7.47h110.71c4.13,0,7.47-3.34,7.47-7.47v-14.72c0-4.13-3.34-7.47-7.47-7.47Z"/>
      </g>
      <path class="cls-5" d="M243.1,180.75c0,1.1-.89,1.99-1.99,1.99h-79.41c-1.1,0-1.99-.89-1.99-1.99s.89-1.99,1.99-1.99h79.41c1.1,0,1.99.89,1.99,1.99ZM259.96,178.76c-1.1,0-1.99.89-1.99,1.99s.89,1.99,1.99,1.99,1.99-.89,1.99-1.99-.89-1.99-1.99-1.99ZM275.65,173.4v14.72c0,5.2-4.23,9.46-9.46,9.46h-110.71c-5.2,0-9.46-4.23-9.46-9.46v-14.72c0-5.2,4.23-9.46,9.46-9.46h53.37v-5.66l-24.95-12.37-11.63,5.77c-.66.33-1.45.26-2.07-.18s-.92-1.17-.79-1.91l1.89-12.83-9.08-9.26c-.51-.54-.71-1.3-.48-2.02.23-.71.84-1.22,1.56-1.35l12.78-2.17,4.8-9.16-11.5-5.71-12.63,6.28c-.66.33-1.45.26-2.07-.18s-.92-1.17-.79-1.91l2.07-13.95-9.85-10.08c-.51-.54-.71-1.3-.48-2.02.23-.71.84-1.22,1.56-1.35l13.93-2.35,6.53-12.5c.36-.66,1.02-1.07,1.76-1.07s1.43.41,1.76,1.07l6.53,12.5,25.61,4.34,5.74-10.97c.36-.66,1.02-1.07,1.76-1.07s1.43.41,1.76,1.07l5.74,10.97,25.61-4.34,6.53-12.5c.36-.66,1.02-1.07,1.76-1.07s1.43.41,1.76,1.07l6.53,12.5,13.9,2.35c.74.13,1.33.64,1.56,1.35.23.71.05,1.48-.48,2.02l-9.87,10.08,2.07,13.95c.1.74-.2,1.48-.79,1.91-.61.43-1.4.51-2.07.18l-12.63-6.28-11.5,5.71,4.8,9.16,12.78,2.17c.74.13,1.33.64,1.56,1.35s.05,1.48-.48,2.02l-8.93,9.26,1.89,12.83c.1.74-.2,1.48-.79,1.91-.61.43-1.4.51-2.07.18l-11.63-5.77-10.51,5.2,12.83,12.83h26.1c5.23,0,9.46,4.23,9.46,9.46h0ZM220.3,89.58l1.12,2.14,18.72,3.16c.74.13,1.33.64,1.56,1.35.23.71.05,1.48-.48,2.02l-13.29,13.57.38,2.68,23.03-11.43c.56-.28,1.22-.28,1.79,0l10.1,5-1.63-11.15c-.1-.61.1-1.25.56-1.68l7.88-8.06-11.12-1.89c-.61-.1-1.15-.48-1.43-1.05l-5.23-10-5.23,10c-.28.56-.82.94-1.43,1.05l-25.31,4.29ZM203.33,94.45c-.28.56-.82.94-1.43,1.05l-15.94,2.7,11.3,11.56c.43.43.64,1.07.56,1.68l-2.35,15.99,14.49-7.19c.28-.13.59-.2.89-.2s.61.08.89.2l14.49,7.19-2.35-15.99c-.1-.61.1-1.25.56-1.68l11.3-11.56-15.99-2.7c-.61-.1-1.15-.48-1.43-1.05l-7.5-14.34-7.5,14.34ZM170.3,103.07l23.03,11.43.38-2.68-13.29-13.57c-.51-.54-.71-1.3-.48-2.02s.84-1.22,1.56-1.35l18.72-3.16,1.12-2.14-25.31-4.29c-.61-.1-1.15-.48-1.43-1.05l-5.2-10-5.23,10c-.28.56-.82.94-1.43,1.05l-11.12,1.89,7.88,8.06c.43.43.64,1.07.56,1.68l-1.66,11.15,10.1-5c.56-.28,1.22-.28,1.79,0h0ZM208.84,153.81v-16.3c0-.82.48-1.53,1.22-1.84s1.61-.13,2.17.43l12.04,12.04,12.6-6.25c.56-.28,1.22-.28,1.79,0l9.08,4.52-1.48-10.03c-.1-.61.1-1.25.56-1.68l7.09-7.24-10-1.68c-.61-.1-1.15-.48-1.43-1.05l-5.28-10.1-8.24,4.08,1.76,11.96c.1.74-.2,1.48-.79,1.91-.36.26-.77.38-1.17.38-.31,0-.61-.08-.89-.2l-17.04-8.49-17.01,8.44c-.66.33-1.45.26-2.07-.18-.61-.43-.92-1.17-.79-1.91l1.76-11.96-8.24-4.08-5.28,10.1c-.28.56-.82.94-1.43,1.05l-10,1.68,7.09,7.24c.43.43.64,1.07.56,1.68l-1.48,10.03,9.08-4.52c.56-.28,1.22-.28,1.79,0l24.03,11.96ZM271.65,173.4c0-3.01-2.45-5.46-5.46-5.46h-26.94c-.54,0-1.05-.2-1.4-.59l-25-25v23.6c0,1.1-.89,1.99-1.99,1.99h-55.38c-3.01,0-5.46,2.45-5.46,5.46v14.72c0,3.01,2.45,5.46,5.46,5.46h110.71c3.01,0,5.46-2.45,5.46-5.46v-14.72Z"/>
    </g>
  </g>
</svg>