<?xml version="1.0" encoding="UTF-8"?>
<svg id="Layer_1" data-name="Layer 1" xmlns="http://www.w3.org/2000/svg" xmlns:xlink="http://www.w3.org/1999/xlink" viewBox="0 0 256 256">
  <defs>
    <style>
      .cls-1 {
        fill: #fff;
      }

      .cls-2 {
        fill: url(#linear-gradient);
      }
    </style>
    <linearGradient id="linear-gradient" x1="163.56" y1="258.28" x2="163.56" y2="-69.4" gradientTransform="translate(.22 201.78) scale(.78 -.78)" gradientUnits="userSpaceOnUse">
      <stop offset="0" stop-color="#61fd7d"/>
      <stop offset="1" stop-color="#2bb826"/>
    </linearGradient>
  </defs>
  <path id="a" class="cls-2" d="M255.98,191.04c0,1.4-.04,4.44-.13,6.79-.21,5.75-.66,13.16-1.35,16.54-1.04,5.08-2.6,9.87-4.64,13.86-2.41,4.72-5.49,8.94-9.14,12.59-3.65,3.64-7.87,6.7-12.58,9.1-4.01,2.04-8.83,3.61-13.94,4.64-3.34.68-10.7,1.12-16.41,1.32-2.35.08-5.39.13-6.79.13l-126.05-.02c-1.4,0-4.44-.04-6.79-.13-5.75-.21-13.16-.66-16.54-1.35-5.08-1.04-9.87-2.6-13.86-4.64-4.72-2.41-8.94-5.49-12.59-9.14-3.64-3.65-6.7-7.87-9.1-12.58-2.04-4.01-3.61-8.83-4.64-13.94-.67-3.34-1.12-10.7-1.32-16.41-.08-2.35-.13-5.39-.13-6.79l.02-126.05c0-1.4.04-4.44.13-6.79.21-5.75.66-13.16,1.35-16.54,1.04-5.08,2.6-9.87,4.64-13.86,2.41-4.72,5.49-8.94,9.14-12.59,3.65-3.64,7.87-6.7,12.58-9.1,4.01-2.04,8.83-3.61,13.94-4.64,3.34-.68,10.7-1.12,16.41-1.32,2.35-.08,5.39-.13,6.79-.13l126.05.02c1.4,0,4.44.04,6.79.13,5.75.21,13.16.66,16.54,1.35,5.08,1.04,9.87,2.6,13.86,4.64,4.72,2.41,8.94,5.49,12.59,9.14,3.64,3.65,6.7,7.87,9.1,12.58,2.04,4.01,3.61,8.83,4.64,13.94.67,3.34,1.12,10.7,1.32,16.41.08,2.35.13,5.39.13,6.79l-.02,126.05h0Z"/>
  <path class="cls-1" d="M195.82,60.56c-17.33-17.35-40.38-26.9-64.94-26.91-50.6,0-91.78,41.17-91.8,91.76,0,16.17,4.22,31.96,12.25,45.88l-13.02,47.56,48.66-12.76c13.41,7.31,28.5,11.16,43.87,11.17h.04c50.59,0,91.78-41.17,91.8-91.77,0-24.52-9.53-47.58-26.86-64.92h0ZM130.89,201.76h-.03c-13.69,0-27.12-3.68-38.83-10.63l-2.79-1.65-28.88,7.57,7.71-28.15-1.81-2.89c-7.64-12.14-11.67-26.18-11.67-40.59.02-42.06,34.24-76.27,76.33-76.27,20.38,0,39.54,7.95,53.94,22.37,14.41,14.42,22.33,33.58,22.33,53.96-.02,42.06-34.24,76.28-76.3,76.28h0ZM172.74,144.63c-2.29-1.15-13.57-6.7-15.67-7.46-2.1-.77-3.63-1.15-5.16,1.15-1.53,2.3-5.92,7.46-7.26,8.99-1.34,1.53-2.68,1.72-4.97.57-2.29-1.15-9.68-3.57-18.45-11.38-6.82-6.08-11.42-13.59-12.76-15.89-1.34-2.3-.14-3.54,1.01-4.68,1.03-1.03,2.29-2.68,3.44-4.02,1.15-1.34,1.53-2.3,2.29-3.83.76-1.53.38-2.87-.19-4.02-.57-1.15-5.16-12.43-7.07-17.03-1.86-4.47-3.75-3.87-5.16-3.94-1.34-.07-2.87-.08-4.4-.08s-4.01.57-6.12,2.87-8.03,7.84-8.03,19.13,8.22,22.19,9.37,23.72c1.15,1.53,16.17,24.69,39.18,34.62,5.47,2.36,9.75,3.77,13.08,4.83,5.49,1.74,10.5,1.5,14.45.91,4.41-.66,13.57-5.55,15.48-10.9,1.91-5.36,1.91-9.95,1.34-10.9s-2.1-1.53-4.4-2.68h0Z"/>
</svg>